<svg width="132" height="46" viewBox="0 0 132 46" fill="#F27758" xmlns="http://www.w3.org/2000/svg">
<rect x="1" y="1" width="129.976" height="44" rx="22" stroke="white"/>
<path d="M29.4546 21.9928C29.4263 18.8454 32.0316 17.3142 32.1508 17.2429C30.6753 15.0916 28.3882 14.7977 27.5845 14.7743C25.6637 14.5721 23.8005 15.9236 22.822 15.9236C21.824 15.9236 20.3172 14.7938 18.6932 14.827C16.6035 14.8592 14.6485 16.0691 13.5762 17.948C11.3634 21.7789 13.0137 27.4086 15.1338 30.5052C16.1943 32.0227 17.4335 33.715 19.0555 33.6555C20.6424 33.591 21.2351 32.6438 23.1501 32.6438C25.0475 32.6438 25.6041 33.6555 27.2584 33.6164C28.9614 33.591 30.0337 32.094 31.0571 30.5628C32.2826 28.8265 32.7748 27.1127 32.7943 27.0248C32.7553 27.0121 29.4878 25.7651 29.4546 21.9928Z" fill="white"/>
<path d="M26.3296 12.7372C27.183 11.6698 27.767 10.2177 27.6049 8.74414C26.3696 8.79883 24.8247 9.5986 23.9351 10.6425C23.148 11.5624 22.4449 13.0702 22.6266 14.4881C24.0142 14.5916 25.439 13.7879 26.3296 12.7372Z" fill="white"/>
<path fill-rule="evenodd" clip-rule="evenodd" d="M50.2204 33.4378H52.4381L48.2351 20.4421H45.6512L41.4668 33.4378H43.6259L44.7831 29.6205H49.0056L50.2204 33.4378ZM47.5408 24.6266L48.6394 28.019H45.1493L46.2293 24.6266C46.5115 23.5465 46.7176 22.7301 46.8465 22.1774H46.8856C47.2059 23.4625 47.4246 24.2789 47.5408 24.6266Z" fill="white"/>
<path fill-rule="evenodd" clip-rule="evenodd" d="M61.8796 32.4152C62.7458 31.4905 63.1784 30.2307 63.1784 28.637C63.1784 27.2103 62.8083 26.06 62.071 25.184C61.3328 24.31 60.4099 23.8735 59.3045 23.8735C57.8905 23.8735 56.8368 24.4331 56.1425 25.5532H56.1034L55.9872 24.0669H54.1562C54.207 25.1196 54.2334 26.1459 54.2334 27.1469V37.2364H56.3154V32.3195C56.8573 33.2072 57.7499 33.6496 58.991 33.6496C60.1404 33.6496 61.1043 33.2384 61.8796 32.4152ZM60.4402 26.4574C60.8523 27.0492 61.0574 27.8011 61.0574 28.7132C61.0574 29.7034 60.8386 30.5003 60.4012 31.1047C59.9646 31.7073 59.3543 32.011 58.5702 32.011C57.9022 32.011 57.3593 31.7756 56.9413 31.3069C56.5234 30.8362 56.3144 30.261 56.3144 29.5813V28.0169C56.3144 27.8509 56.3466 27.641 56.4111 27.3842C56.539 26.8305 56.8124 26.3842 57.2304 26.0434C57.6473 25.7036 58.1141 25.5317 58.6278 25.5317C59.3856 25.5317 59.99 25.8412 60.4402 26.4574Z" fill="white"/>
<path fill-rule="evenodd" clip-rule="evenodd" d="M72.657 32.4152C73.5231 31.4905 73.9557 30.2307 73.9557 28.637C73.9557 27.2103 73.5847 26.06 72.8484 25.184C72.1091 24.31 71.1853 23.8735 70.0809 23.8735C68.6659 23.8735 67.6122 24.4331 66.9189 25.5532H66.8798L66.7636 24.0669H64.9326C64.9834 25.1196 65.0098 26.1459 65.0098 27.1469V37.2364H67.0917V32.3195C67.6347 33.2072 68.5272 33.6496 69.7674 33.6496C70.9178 33.6496 71.8806 33.2384 72.657 32.4152ZM71.2156 26.4574C71.6277 27.0492 71.8337 27.8011 71.8337 28.7132C71.8337 29.7034 71.615 30.5003 71.1775 31.1047C70.742 31.7073 70.1317 32.011 69.3465 32.011C68.6766 32.011 68.1337 31.7746 67.7157 31.3069C67.2997 30.8362 67.0898 30.261 67.0898 29.5813V28.0169C67.0898 27.8509 67.1239 27.641 67.1874 27.3842C67.3153 26.8305 67.5888 26.3842 68.0058 26.0434C68.4247 25.7036 68.8915 25.5317 69.4051 25.5317C70.1629 25.5317 70.7664 25.8412 71.2156 26.4574Z" fill="white"/>
<path d="M86.0066 29.7934C86.0066 30.8988 85.6208 31.7982 84.8513 32.4925C84.0057 33.2503 82.825 33.6302 81.3114 33.6302C79.913 33.6302 78.792 33.3606 77.9463 32.8206L78.4277 31.0853C79.3408 31.6253 80.3437 31.8958 81.4354 31.8958C82.2206 31.8958 82.8309 31.7181 83.2664 31.3656C83.7039 31.0111 83.9236 30.5394 83.9236 29.9496C83.9236 29.4213 83.742 28.978 83.3826 28.6176C83.0223 28.2592 82.4266 27.9233 81.5907 27.6167C79.3154 26.7681 78.1767 25.5259 78.1767 23.8942C78.1767 22.8278 78.5791 21.9548 79.3808 21.2722C80.1835 20.5906 81.2479 20.2498 82.5721 20.2498C83.7547 20.2498 84.74 20.4558 85.5222 20.8669L84.9998 22.5641C84.2635 22.1657 83.4324 21.9665 82.5028 21.9665C81.7684 21.9665 81.1913 22.1472 80.7802 22.5065C80.4335 22.8278 80.2568 23.2194 80.2568 23.6842C80.2568 24.1969 80.4569 24.6227 80.8563 24.9556C81.202 25.2642 81.8329 25.5992 82.745 25.9585C83.8641 26.4097 84.6853 26.9351 85.2126 27.5386C85.7429 28.1421 86.0066 28.895 86.0066 29.7934Z" fill="white"/>
<path d="M92.907 25.6295H90.6122V30.1792C90.6122 31.3363 91.0165 31.9135 91.827 31.9135C92.199 31.9135 92.5076 31.8822 92.7518 31.8168L92.8094 33.3978C92.3992 33.5511 91.8592 33.6283 91.1913 33.6283C90.3681 33.6283 89.7265 33.3763 89.2616 32.8753C88.7988 32.3734 88.5673 31.5326 88.5673 30.3491V25.6256H87.2012V24.0632H88.5673V22.3474L90.6122 21.7302V24.0632H92.907V25.6295Z" fill="white"/>
<path fill-rule="evenodd" clip-rule="evenodd" d="M102.007 32.2229C102.83 31.2981 103.241 30.1155 103.241 28.6751C103.241 27.2728 102.843 26.1313 102.045 25.2456C101.208 24.3345 100.104 23.8765 98.7284 23.8765C97.3016 23.8765 96.1669 24.3403 95.3252 25.2651C94.4853 26.1899 94.0625 27.3793 94.0625 28.8314C94.0625 30.219 94.4707 31.3694 95.2871 32.2814C96.1034 33.1935 97.1981 33.6496 98.575 33.6496C100.002 33.6496 101.146 33.174 102.007 32.2229ZM100.525 26.5121C100.897 27.1283 101.083 27.8646 101.083 28.723C101.083 29.5833 100.89 30.3245 100.509 30.9553C100.056 31.7092 99.4324 32.09 98.6375 32.09C97.8231 32.09 97.1952 31.718 96.745 30.9729C96.371 30.3596 96.1865 29.6214 96.1865 28.762C96.1865 27.8773 96.371 27.1283 96.745 26.5121C97.1796 25.768 97.8212 25.3969 98.6541 25.3969C99.4627 25.3969 100.089 25.768 100.525 26.5121Z" fill="white"/>
<path d="M110.012 25.8979C109.805 25.8598 109.585 25.8412 109.355 25.8412C108.623 25.8412 108.057 26.1156 107.658 26.6703C107.311 27.1586 107.139 27.7757 107.139 28.5208V33.4377H105.057V27.018C105.057 25.9389 105.036 24.9536 104.996 24.0679H106.81L106.886 25.8608H106.943C107.164 25.2446 107.51 24.7475 107.984 24.3764C108.449 24.0405 108.949 23.8735 109.489 23.8735C109.681 23.8735 109.855 23.8882 110.01 23.9116L110.012 25.8979Z" fill="white"/>
<path fill-rule="evenodd" clip-rule="evenodd" d="M119.247 29.2532C119.299 28.9964 119.323 28.682 119.323 28.3089C119.323 27.14 119.047 26.1557 118.496 25.3618C117.803 24.3598 116.78 23.8589 115.43 23.8589C114.055 23.8589 112.962 24.3598 112.153 25.3618C111.38 26.3002 110.995 27.4769 110.995 28.889C110.995 30.3264 111.411 31.4758 112.238 32.3303C113.068 33.1838 114.209 33.6115 115.662 33.6115C116.869 33.6115 117.917 33.4181 118.803 33.0324L118.477 31.5871C117.719 31.884 116.875 32.0305 115.95 32.0305C115.115 32.0305 114.433 31.8117 113.907 31.3762C113.328 30.8879 113.024 30.179 113.002 29.2532H119.247ZM116.933 26.1684C117.216 26.6195 117.352 27.1508 117.338 27.7689L113.002 27.767C113.065 27.14 113.271 26.5981 113.618 26.1479C114.04 25.5815 114.594 25.2993 115.275 25.2993C116.018 25.2993 116.573 25.5883 116.933 26.1684Z" fill="white"/>
<path d="M42.0586 14.999H42.6104C43.0824 14.1364 43.4779 13.168 43.7969 12.0938C44.1159 11.0195 44.321 9.94206 44.4121 8.86133H48.0986V14.999H49.0215V17.9678H47.8984V16H43.1816V17.9678H42.0586V14.999ZM45.3887 9.87207C45.3171 10.611 45.1348 11.4688 44.8418 12.4453C44.5488 13.4186 44.2152 14.2699 43.8408 14.999H46.9316V9.87207H45.3887ZM54.8467 13.29C54.8467 14.1722 54.6204 14.8607 54.168 15.3555C53.7155 15.8503 53.0856 16.0977 52.2783 16.0977C51.7738 16.0977 51.3278 15.9837 50.9404 15.7559C50.5531 15.528 50.2552 15.2008 50.0469 14.7744C49.8385 14.348 49.7344 13.8532 49.7344 13.29C49.7344 12.4144 49.959 11.7308 50.4082 11.2393C50.8574 10.7477 51.4906 10.502 52.3076 10.502C53.0889 10.502 53.7074 10.7542 54.1631 11.2588C54.6188 11.7601 54.8467 12.4372 54.8467 13.29ZM50.916 13.29C50.916 14.5368 51.3766 15.1602 52.2979 15.1602C53.2093 15.1602 53.665 14.5368 53.665 13.29C53.665 12.0563 53.2061 11.4395 52.2881 11.4395C51.8063 11.4395 51.4564 11.599 51.2383 11.918C51.0234 12.237 50.916 12.6943 50.916 13.29ZM58.3477 16.0977C57.5306 16.0977 56.9089 15.86 56.4824 15.3848C56.0592 14.9062 55.8477 14.221 55.8477 13.3291C55.8477 12.4209 56.069 11.7227 56.5117 11.2344C56.9577 10.7461 57.6006 10.502 58.4404 10.502C59.0101 10.502 59.5228 10.6077 59.9785 10.8193L59.6318 11.7422C59.1468 11.5534 58.7464 11.459 58.4307 11.459C57.4964 11.459 57.0293 12.0791 57.0293 13.3193C57.0293 13.9248 57.1449 14.3805 57.376 14.6865C57.6104 14.9893 57.9521 15.1406 58.4014 15.1406C58.9124 15.1406 59.3958 15.0137 59.8516 14.7598V15.7607C59.6465 15.8812 59.4268 15.9674 59.1924 16.0195C58.9613 16.0716 58.6797 16.0977 58.3477 16.0977ZM65.1787 10.5996V11.498H63.4209V16H62.2686V11.498H60.5107V10.5996H65.1787ZM65.3984 10.5996H66.6484L67.7471 13.6611C67.9131 14.0973 68.0238 14.5075 68.0791 14.8916H68.1182C68.1475 14.7126 68.2012 14.4961 68.2793 14.2422C68.3574 13.985 68.7708 12.7708 69.5195 10.5996H70.7598L68.4502 16.7178C68.0303 17.8408 67.3304 18.4023 66.3506 18.4023C66.0967 18.4023 65.8493 18.3747 65.6084 18.3193V17.4111C65.7809 17.4502 65.9779 17.4697 66.1992 17.4697C66.7526 17.4697 67.1416 17.1491 67.3662 16.5078L67.5664 16L65.3984 10.5996ZM76.3018 10.5996V16H75.1494V11.5078H72.7275V16H71.5801V10.5996H76.3018ZM79.0947 10.5996V12.7676H81.6387V10.5996H82.7861V16H81.6387V13.6709H79.0947V16H77.9473V10.5996H79.0947ZM89.2217 13.29C89.2217 14.1722 88.9954 14.8607 88.543 15.3555C88.0905 15.8503 87.4606 16.0977 86.6533 16.0977C86.1488 16.0977 85.7028 15.9837 85.3154 15.7559C84.9281 15.528 84.6302 15.2008 84.4219 14.7744C84.2135 14.348 84.1094 13.8532 84.1094 13.29C84.1094 12.4144 84.334 11.7308 84.7832 11.2393C85.2324 10.7477 85.8656 10.502 86.6826 10.502C87.4639 10.502 88.0824 10.7542 88.5381 11.2588C88.9938 11.7601 89.2217 12.4372 89.2217 13.29ZM85.291 13.29C85.291 14.5368 85.7516 15.1602 86.6729 15.1602C87.5843 15.1602 88.04 14.5368 88.04 13.29C88.04 12.0563 87.5811 11.4395 86.6631 11.4395C86.1813 11.4395 85.8314 11.599 85.6133 11.918C85.3984 12.237 85.291 12.6943 85.291 13.29ZM97.8301 11.9814C97.8301 12.6195 97.4574 13.0052 96.7119 13.1387V13.1777C97.1286 13.2266 97.4476 13.3584 97.6689 13.5732C97.8903 13.7881 98.001 14.0664 98.001 14.4082C98.001 14.9193 97.8057 15.3132 97.415 15.5898C97.0277 15.8633 96.4629 16 95.7207 16H93.1426V10.5996H95.7109C97.1237 10.5996 97.8301 11.0602 97.8301 11.9814ZM96.8242 14.3398C96.8242 14.0794 96.7233 13.8955 96.5215 13.7881C96.3197 13.6774 96.0169 13.6221 95.6133 13.6221H94.29V15.1504H95.6426C96.4303 15.1504 96.8242 14.8802 96.8242 14.3398ZM96.6826 12.0791C96.6826 11.8643 96.598 11.7096 96.4287 11.6152C96.2627 11.5176 96.0137 11.4688 95.6816 11.4688H94.29V12.7676H95.5107C95.8949 12.7676 96.1862 12.7188 96.3848 12.6211C96.5833 12.5202 96.6826 12.3395 96.6826 12.0791Z" fill="white"/>
</svg>
