<svg width="338" height="394" viewBox="0 0 338 394" fill="none" xmlns="http://www.w3.org/2000/svg">
<g opacity="0.15">
<path fill-rule="evenodd" clip-rule="evenodd" d="M336.839 197C336.839 305.695 248.724 393.81 140.029 393.81C31.3344 393.81 -56.7803 305.695 -56.7803 197C-56.7803 88.3051 31.3344 0.19043 140.029 0.19043C248.724 0.19043 336.839 88.3051 336.839 197ZM-48.4054 197C-48.4054 301.07 35.9597 385.435 140.029 385.435C244.099 385.435 328.464 301.07 328.464 197C328.464 92.9304 244.099 8.56531 140.029 8.56531C35.9597 8.56531 -48.4054 92.9304 -48.4054 197Z" fill="#DCDCDC"/>
<path d="M68.7012 125.656L112.295 174.043L118.564 168.407L74.97 120.02L68.7012 125.656Z" fill="#FF8A65"/>
<path fill-rule="evenodd" clip-rule="evenodd" d="M127.367 144.925C127.367 163.537 112.263 178.625 93.6317 178.625C75.0003 178.625 59.8965 163.537 59.8965 144.925C59.8965 126.313 75.0003 111.226 93.6317 111.226C112.263 111.226 127.367 126.313 127.367 144.925ZM68.3303 144.925C68.3303 158.884 79.6581 170.2 93.6317 170.2C107.605 170.2 118.933 158.884 118.933 144.925C118.933 130.966 107.605 119.65 93.6317 119.65C79.6581 119.65 68.3303 130.966 68.3303 144.925Z" fill="#FF8A65"/>
<path fill-rule="evenodd" clip-rule="evenodd" d="M235.304 196.661C252.577 179.388 252.562 151.368 235.271 134.076C217.979 116.785 189.959 116.77 172.686 134.043L74.3904 232.339C57.1172 249.612 57.132 277.632 74.4234 294.924C91.7149 312.215 119.735 312.23 137.008 294.957L235.304 196.661ZM178.65 140.007C192.633 126.024 215.316 126.036 229.314 140.034C243.311 154.032 243.323 176.715 229.34 190.698L131.045 288.993C117.062 302.976 94.3786 302.964 80.3808 288.967C66.3829 274.969 66.371 252.286 80.354 238.303L178.65 140.007Z" fill="#FF8A65"/>
<path fill-rule="evenodd" clip-rule="evenodd" d="M169.168 230.899L139.35 201.081L91.6911 248.739C83.4658 256.964 83.4728 270.307 91.7069 278.541C99.9409 286.775 113.284 286.782 121.509 278.557L169.168 230.899ZM97.6547 254.703L139.356 213.001L157.247 230.892L115.546 272.593C110.61 277.529 102.605 277.524 97.6642 272.584C92.7238 267.644 92.7195 259.638 97.6547 254.703Z" fill="#FF8A65"/>
</g>
</svg>
