<svg width="64" height="64" viewBox="0 0 64 64" fill="none" xmlns="http://www.w3.org/2000/svg">
<path fill-rule="evenodd" clip-rule="evenodd" d="M64 32C64 49.6731 49.6731 64 32 64C14.3269 64 0 49.6731 0 32C0 14.3269 14.3269 0 32 0C49.6731 0 64 14.3269 64 32ZM1.3617 32C1.3617 48.9211 15.0789 62.6383 32 62.6383C48.9211 62.6383 62.6383 48.9211 62.6383 32C62.6383 15.0789 48.9211 1.3617 32 1.3617C15.0789 1.3617 1.3617 15.0789 1.3617 32Z" fill="#DCDCDC"/>
<path fill-rule="evenodd" clip-rule="evenodd" d="M42.2698 27.3309L46.2749 31.5202C45.8495 23.8172 39.4685 17.702 31.6592 17.702C23.5747 17.702 17.0209 24.2558 17.0209 32.3403C17.0209 40.4248 23.5747 46.9786 31.6592 46.9786C35.5515 46.9786 39.2013 45.4536 41.9216 42.7789L42.8763 43.7499C39.9038 46.6725 35.9123 48.3403 31.6592 48.3403C22.8226 48.3403 15.6592 41.1769 15.6592 32.3403C15.6592 23.5038 22.8226 16.3403 31.6592 16.3403C40.1732 16.3403 47.1341 22.9904 47.6308 31.3798L50.9386 27.3683L51.9892 28.2346L47.0159 34.2659L41.2855 28.2719L42.2698 27.3309ZM38.1273 33.2641C38.1273 35.3763 36.5764 37.0178 34.5509 37.0178V38.3795C37.3463 38.3795 39.489 36.1116 39.489 33.2641C39.489 31.4555 37.9808 28.2403 34.9578 23.4655L34.4112 22.602L33.8249 23.4391C33.641 23.7017 33.4475 23.9806 33.1894 24.3545L33.1268 24.4453L33.1187 24.4571C32.9731 24.6683 32.6466 25.1417 32.5335 25.3053C32.4504 25.4256 32.3731 25.5372 32.2989 25.6441C31.7435 26.444 31.3151 27.0458 30.9235 27.5697L32.0143 28.3849C32.4172 27.8457 32.8538 27.2325 33.4174 26.4207C33.4922 26.3129 33.57 26.2007 33.6537 26.0796C33.7704 25.9107 34.1128 25.4141 34.2516 25.2129L34.3101 25.128L34.353 25.0659C36.8674 29.1342 38.1273 31.9086 38.1273 33.2641ZM33.3613 36.4254C33.3613 39.2456 31.0751 41.5318 28.2549 41.5318C25.4347 41.5318 23.1485 39.2456 23.1485 36.4254C23.1485 34.6168 24.6568 31.4016 27.6797 26.6268L28.2549 25.7182L28.8302 26.6268C31.8531 31.4016 33.3613 34.6168 33.3613 36.4254ZM28.2549 40.1701C30.3231 40.1701 31.9996 38.4936 31.9996 36.4254C31.9996 35.0752 30.7496 32.3174 28.2549 28.2752C25.7602 32.3174 24.5102 35.0752 24.5102 36.4254C24.5102 38.4936 26.1868 40.1701 28.2549 40.1701Z" fill="#FF5252"/>
</svg>
