<svg width="64" height="64" viewBox="0 0 64 64" fill="none" xmlns="http://www.w3.org/2000/svg">
<path fill-rule="evenodd" clip-rule="evenodd" d="M64 32C64 49.6731 49.6731 64 32 64C14.3269 64 0 49.6731 0 32C0 14.3269 14.3269 0 32 0C49.6731 0 64 14.3269 64 32ZM1.3617 32C1.3617 48.9211 15.0789 62.6383 32 62.6383C48.9211 62.6383 62.6383 48.9211 62.6383 32C62.6383 15.0789 48.9211 1.3617 32 1.3617C15.0789 1.3617 1.3617 15.0789 1.3617 32Z" fill="#DCDCDC"/>
<path fill-rule="evenodd" clip-rule="evenodd" d="M19.2647 22H39.7353C42.0906 22 44 24.052 44 26.5833V29.2362L50 26V41L44 37.8513V39.4167C44 41.948 42.0906 44 39.7353 44H19.2647C16.9094 44 15 41.948 15 39.4167V26.5833C15 24.052 16.9094 22 19.2647 22ZM19.2647 23.8333C17.8515 23.8333 16.7059 25.0646 16.7059 26.5833V39.4167C16.7059 40.9354 17.8515 42.1667 19.2647 42.1667H39.7353C41.1485 42.1667 42.2941 40.9354 42.2941 39.4167V26.5833C42.2941 25.0646 41.1485 23.8333 39.7353 23.8333H19.2647Z" fill="#FF5252"/>
</svg>
