<svg width="64" height="64" viewBox="0 0 64 64" fill="none" xmlns="http://www.w3.org/2000/svg">
<path fill-rule="evenodd" clip-rule="evenodd" d="M63.9694 31.9998C63.9694 49.6559 49.6564 63.9689 32.0003 63.9689C14.3443 63.9689 0.03125 49.6559 0.03125 31.9998C0.03125 14.3438 14.3443 0.0307617 32.0003 0.0307617C49.6564 0.0307617 63.9694 14.3438 63.9694 31.9998ZM1.39164 31.9998C1.39164 48.9046 15.0956 62.6085 32.0003 62.6085C48.905 62.6085 62.609 48.9046 62.609 31.9998C62.609 15.0951 48.905 1.39115 32.0003 1.39115C15.0956 1.39115 1.39164 15.0951 1.39164 31.9998Z" fill="#DCDCDC"/>
<path d="M20.5244 20.402L27.6036 28.2677L28.6215 27.3516L21.5424 19.4858L20.5244 20.402Z" fill="#FF5252"/>
<path fill-rule="evenodd" clip-rule="evenodd" d="M30.0511 23.5343C30.0511 26.5599 27.5984 29.0125 24.5729 29.0125C21.5474 29.0125 19.0947 26.5599 19.0947 23.5343C19.0947 20.5088 21.5474 18.0562 24.5729 18.0562C27.5984 18.0562 30.0511 20.5088 30.0511 23.5343ZM20.4643 23.5343C20.4643 25.8035 22.3038 27.643 24.5729 27.643C26.8421 27.643 28.6816 25.8035 28.6816 23.5343C28.6816 21.2652 26.8421 19.4257 24.5729 19.4257C22.3038 19.4257 20.4643 21.2652 20.4643 23.5343Z" fill="#FF5252"/>
<path fill-rule="evenodd" clip-rule="evenodd" d="M47.5871 31.9391C50.395 29.1312 50.395 24.5786 47.5871 21.7707C44.7792 18.9628 40.2267 18.9628 37.4187 21.7707L21.4399 37.7496C18.632 40.5575 18.632 45.11 21.4399 47.9179C24.2478 50.7259 28.8003 50.7259 31.6082 47.9179L47.5871 31.9391ZM38.3872 22.7391C40.6602 20.466 44.3456 20.466 46.6187 22.7391C48.8918 25.0122 48.8918 28.6976 46.6187 30.9707L30.6398 46.9495C28.3668 49.2226 24.6814 49.2226 22.4083 46.9495C20.1352 44.6765 20.1352 40.9911 22.4083 38.718L38.3872 22.7391Z" fill="#FF5252"/>
<path fill-rule="evenodd" clip-rule="evenodd" d="M36.844 37.5076L32.002 32.6655L24.2546 40.4129C22.9175 41.75 22.9175 43.9178 24.2546 45.2549C25.5917 46.592 27.7596 46.592 29.0967 45.2549L36.844 37.5076ZM25.223 41.3813L32.002 34.6024L34.9072 37.5076L28.1283 44.2865C27.326 45.0888 26.0253 45.0888 25.223 44.2865C24.4208 43.4843 24.4208 42.1835 25.223 41.3813Z" fill="#FF5252"/>
</svg>
