<svg width="190" height="59" viewBox="0 0 190 59" fill="none" xmlns="http://www.w3.org/2000/svg">
<path fill-rule="evenodd" clip-rule="evenodd" d="M33.9955 52.867C33.6134 52.7049 33.2606 52.4259 32.937 52.0323V46.6994C33.3069 46.2424 33.7001 45.89 34.1168 45.638C34.5336 45.3872 35.0382 45.2615 35.6325 45.2615C36.0099 45.2615 36.3475 45.3308 36.6447 45.4694C36.9413 45.6098 37.1939 45.8289 37.4025 46.1308C37.6106 46.4321 37.77 46.8239 37.8825 47.3079C37.9939 47.7908 38.0502 48.3793 38.0502 49.076C38.0502 49.7638 37.9839 50.3606 37.8538 50.8675C37.7225 51.3727 37.535 51.7933 37.2923 52.1246C37.0491 52.457 36.7543 52.7049 36.4073 52.867C36.0604 53.0286 35.6712 53.1108 35.2386 53.1108C34.792 53.1108 34.3777 53.0286 33.9955 52.867ZM34.441 43.511C33.8238 43.8505 33.2723 44.2952 32.7864 44.8438L32.5549 43.7431C32.4394 43.3947 32.1962 43.2209 31.8264 43.2209H30.0798V59H32.937V54.1311C33.3069 54.4935 33.7271 54.7778 34.1983 54.9834C34.6684 55.1872 35.2345 55.29 35.8986 55.29C36.6769 55.29 37.3814 55.1332 38.0097 54.8207C38.638 54.5076 39.1737 54.0735 39.6174 53.5167C40.0605 52.9592 40.4028 52.3025 40.6413 51.5454C40.8804 50.7882 41 49.9647 41 49.076C41 48.1021 40.8939 47.2386 40.6823 46.4844C40.4696 45.7314 40.1689 45.0976 39.7797 44.5836C39.39 44.0685 38.9276 43.6761 38.3919 43.4059C37.855 43.1357 37.263 43 36.6154 43C35.7825 43 35.0575 43.1715 34.441 43.511ZM13.7546 43.1709V55.0891H11.1752V48.4575C11.1752 48.1867 11.1886 47.8812 11.2156 47.5411C11.2426 47.2016 11.2871 46.885 11.3492 46.5901L7.85549 53.0145C7.68494 53.3469 7.41533 53.5126 7.0455 53.5126H6.74483C6.37383 53.5126 6.10423 53.3469 5.93484 53.0145L2.39422 46.5567C2.44872 46.8492 2.49327 47.1705 2.52785 47.5188C2.56243 47.8654 2.57942 48.1796 2.57942 48.4575V55.0891H0V43.1709H2.35964C2.56008 43.1709 2.75877 43.2132 2.9557 43.2984C3.15204 43.3836 3.31556 43.5533 3.44744 43.8077L6.24665 48.8164C6.37031 49.049 6.48636 49.2933 6.5942 49.5524C6.70205 49.8114 6.80227 50.0734 6.89487 50.3354C6.98748 50.0734 7.08594 49.8102 7.19027 49.5471C7.29401 49.2851 7.40771 49.0419 7.53138 48.8164L10.3077 43.8077C10.4466 43.5463 10.6119 43.3736 10.8053 43.2931C10.997 43.2109 11.1945 43.1709 11.3949 43.1709H13.7546ZM27.2569 43.2206V55.1159H24.3997V48.1711C24.3997 47.9931 24.409 47.7993 24.4284 47.5855C24.4477 47.3728 24.4729 47.1596 24.504 46.9429C24.3493 47.2982 24.1799 47.6107 23.9947 47.8815C23.9794 47.8968 23.9021 48.0031 23.7632 48.1999C23.6243 48.3978 23.4449 48.651 23.2251 48.96L23.2037 48.9901L23.203 48.9911C22.9887 49.2929 22.7476 49.6326 22.479 50.0085C22.2976 50.2636 22.1146 50.5213 21.9299 50.7813L21.6345 51.1974C20.9634 52.1484 20.2038 53.2227 19.3557 54.4198C19.2479 54.5825 19.1066 54.7411 18.9337 54.8956C18.7596 55.0513 18.5615 55.1276 18.3376 55.1276H16.5905V43.2323H19.4483V50.1771C19.4483 50.355 19.4383 50.5506 19.419 50.7627C19.3997 50.9753 19.375 51.1903 19.344 51.4071C19.5134 51.0276 19.6833 50.7145 19.8527 50.4666C19.8603 50.4514 19.9342 50.3468 20.0725 50.1542C20.2114 49.9603 20.3908 49.7095 20.6105 49.3999C20.8309 49.0916 21.0794 48.7415 21.3566 48.3509C21.6345 47.9602 21.9158 47.5614 22.2012 47.1508C22.8723 46.1998 23.636 45.1255 24.4917 43.9284C24.6001 43.7586 24.7425 43.5971 24.9195 43.4473C25.0971 43.2958 25.2976 43.2206 25.5215 43.2206H27.2569Z" fill="#BDBDBD"/>
<path fill-rule="evenodd" clip-rule="evenodd" d="M153.598 16.1855C153.627 16.1622 153.658 16.1285 153.691 16.0848L153.97 15.6931C153.755 15.472 153.509 15.3015 153.234 15.181C152.957 15.0605 152.638 15 152.276 15C151.888 15 151.545 15.0663 151.248 15.1985C150.951 15.3312 150.702 15.5145 150.501 15.7484C150.301 15.983 150.148 16.2618 150.043 16.5848C149.939 16.9078 149.887 17.2587 149.887 17.637C149.887 18.0554 149.945 18.4279 150.061 18.7544C150.176 19.0809 150.335 19.3573 150.536 19.5832C150.736 19.8096 150.972 19.9818 151.24 20.1005C151.51 20.2193 151.799 20.2792 152.11 20.2792C152.289 20.2792 152.467 20.2647 152.643 20.2362C152.82 20.2076 152.989 20.1611 153.153 20.0959C153.316 20.0301 153.471 19.9457 153.618 19.8421C153.764 19.738 153.898 19.6111 154.019 19.4604L153.721 19.0634C153.675 18.9965 153.609 18.9628 153.525 18.9628C153.456 18.9628 153.392 18.9878 153.331 19.0384C153.271 19.0885 153.198 19.1438 153.114 19.2037C153.028 19.2642 152.923 19.3195 152.795 19.3702C152.668 19.4202 152.503 19.4452 152.301 19.4452C152.095 19.4452 151.91 19.4051 151.745 19.3248C151.58 19.2444 151.44 19.1275 151.323 18.9732C151.208 18.819 151.119 18.6299 151.057 18.4052C150.995 18.1811 150.964 17.9251 150.964 17.637C150.964 17.3588 150.993 17.1091 151.05 16.8862C151.107 16.6633 151.193 16.4742 151.309 16.3182C151.425 16.1628 151.569 16.0429 151.74 15.9597C151.911 15.8759 152.111 15.834 152.34 15.834C152.516 15.834 152.663 15.8538 152.78 15.8939C152.898 15.9341 152.998 15.9789 153.082 16.0272C153.165 16.0755 153.237 16.1203 153.297 16.1599C153.357 16.2006 153.415 16.2204 153.471 16.2204C153.526 16.2204 153.569 16.2088 153.598 16.1855ZM119.167 16.5592C119.218 16.7152 119.243 16.8834 119.243 17.0644H116.76C116.819 16.6593 116.958 16.3445 117.176 16.1198C117.395 15.8957 117.695 15.7834 118.077 15.7834C118.267 15.7834 118.434 15.816 118.579 15.8812C118.724 15.947 118.847 16.0372 118.944 16.153C119.042 16.2682 119.116 16.4038 119.167 16.5592ZM116.863 18.4833C116.788 18.2708 116.744 18.0188 116.731 17.7273H119.938C120.032 17.7273 120.098 17.6987 120.134 17.6423C120.17 17.5853 120.188 17.4729 120.188 17.3053C120.188 16.9404 120.135 16.6151 120.028 16.3287C119.922 16.0424 119.775 15.8003 119.586 15.6024C119.396 15.4051 119.171 15.2556 118.91 15.1531C118.649 15.0513 118.365 15.0001 118.058 15.0001C117.689 15.0001 117.359 15.0664 117.066 15.1985C116.774 15.3306 116.527 15.5105 116.323 15.7386C116.118 15.9662 115.962 16.2339 115.852 16.5423C115.743 16.8502 115.688 17.1814 115.688 17.5369C115.688 17.9822 115.75 18.375 115.872 18.7166C115.995 19.0583 116.164 19.3446 116.381 19.5757C116.598 19.8067 116.854 19.9819 117.15 20.1006C117.445 20.2193 117.766 20.2787 118.112 20.2787C118.288 20.2787 118.469 20.2647 118.655 20.2362C118.841 20.2077 119.022 20.1611 119.198 20.0954C119.375 20.0302 119.541 19.9458 119.698 19.8416C119.855 19.738 119.995 19.6106 120.119 19.4604L119.82 19.0635C119.775 18.9966 119.71 18.9628 119.625 18.9628C119.559 18.9628 119.488 18.9873 119.409 19.0361C119.331 19.0845 119.237 19.138 119.125 19.1968C119.014 19.255 118.884 19.3085 118.733 19.3574C118.583 19.4057 118.405 19.4302 118.2 19.4302C117.985 19.4302 117.789 19.3958 117.615 19.3271C117.44 19.2585 117.29 19.1537 117.164 19.0135C117.039 18.8726 116.938 18.6957 116.863 18.4833ZM114.68 20.2039V15.0655H113.823C113.751 15.0655 113.679 15.0812 113.608 15.1133C113.536 15.1453 113.475 15.211 113.426 15.3111L112.09 17.692C112.044 17.7793 112.002 17.873 111.962 17.9737C111.923 18.0738 111.886 18.1745 111.85 18.2752C111.814 18.1745 111.777 18.0738 111.74 17.9737C111.702 17.873 111.661 17.7793 111.615 17.692L110.259 15.3111C110.206 15.2145 110.145 15.1493 110.075 15.1156C110.005 15.0824 109.934 15.0655 109.862 15.0655H109V20.2039H109.95V17.1042C109.95 16.9942 109.943 16.8697 109.928 16.7306C109.914 16.5915 109.896 16.4635 109.877 16.3459L111.497 19.2943C111.53 19.3548 111.571 19.4025 111.622 19.438C111.673 19.4729 111.731 19.4904 111.796 19.4904H111.908C111.974 19.4904 112.033 19.4729 112.085 19.438C112.137 19.4025 112.18 19.3548 112.212 19.2943L113.803 16.361C113.784 16.4786 113.767 16.6049 113.754 16.7405C113.741 16.8761 113.735 16.9972 113.735 17.1042V20.2039H114.68ZM124.521 19.425V15.9191H123.12C123.091 16.3882 123.049 16.8084 122.995 17.1803C122.941 17.5516 122.879 17.8804 122.81 18.1668C122.739 18.4531 122.661 18.6993 122.577 18.9053C122.492 19.1108 122.404 19.2842 122.312 19.425H124.521ZM126.455 19.3895V21.6151C126.455 21.7157 126.426 21.7949 126.369 21.8537C126.311 21.9119 126.239 21.9416 126.151 21.9416H125.5V20.2037H121.549V21.6348C121.549 21.7122 121.525 21.7827 121.478 21.8461C121.43 21.9095 121.358 21.9416 121.26 21.9416H120.594V19.425H120.745C120.86 19.425 120.972 19.4076 121.084 19.3727C121.194 19.3372 121.3 19.2662 121.402 19.1591C121.503 19.052 121.599 18.9001 121.691 18.7045C121.782 18.5084 121.865 18.2494 121.938 17.9282C122.011 17.6069 122.076 17.2135 122.131 16.7479C122.187 16.2829 122.231 15.7271 122.263 15.0805H125.539V19.3895H126.455ZM131.664 20.2038V15.0805H131.027C130.946 15.0805 130.872 15.1091 130.807 15.1655C130.742 15.2231 130.69 15.2848 130.65 15.3518L128.481 18.4054C128.413 18.5061 128.346 18.633 128.28 18.7872C128.294 18.6999 128.304 18.6132 128.312 18.5259C128.321 18.4392 128.325 18.3606 128.325 18.2902V15.0805H127.272V20.2084H127.909C127.991 20.2084 128.064 20.1793 128.129 20.1206C128.194 20.0624 128.246 20.0013 128.286 19.9372L130.455 16.8783C130.491 16.8283 130.524 16.7724 130.555 16.7101C130.586 16.6484 130.618 16.5809 130.65 16.507C130.637 16.5943 130.628 16.6793 130.621 16.7631C130.615 16.8469 130.611 16.9237 130.611 16.9941V20.2038H131.664ZM138.122 19.3898V21.6153C138.122 21.7154 138.094 21.7951 138.039 21.8533C137.983 21.9121 137.911 21.9412 137.823 21.9412H137.172V20.2034H132.946V15.0807H134V19.3898H136.159V15.0807H137.206V19.3898H138.122ZM143.331 20.2038V15.0805H142.694C142.613 15.0805 142.539 15.1091 142.474 15.1655C142.408 15.2231 142.357 15.2848 142.318 15.3518L140.148 18.4054C140.08 18.5061 140.013 18.633 139.948 18.7872C139.961 18.6999 139.971 18.6132 139.979 18.5259C139.988 18.4392 139.992 18.3606 139.992 18.2902V15.0805H138.939V20.2084H139.576C139.658 20.2084 139.731 20.1793 139.796 20.1206C139.861 20.0624 139.913 20.0013 139.953 19.9372L142.122 16.8783C142.158 16.8283 142.191 16.7724 142.222 16.7101C142.253 16.6484 142.285 16.5809 142.318 16.507C142.304 16.5943 142.295 16.6793 142.288 16.7631C142.282 16.8469 142.278 16.9237 142.278 16.9941V20.2038H143.331ZM148.874 15.0805V20.2038H147.826V17.8782H145.666V20.2038H144.614V15.0805H145.666V17.0645H147.826V15.0805H148.874ZM157.867 15.3718C157.92 15.2845 157.991 15.2141 158.08 15.1612C158.17 15.107 158.264 15.0808 158.362 15.0808H159.184L157.955 17.0043C157.878 17.1347 157.796 17.24 157.711 17.3209C157.626 17.4006 157.521 17.4629 157.397 17.506C157.557 17.5531 157.69 17.6247 157.796 17.7202C157.903 17.8156 157.998 17.9384 158.083 18.0891L159.321 20.2035H158.597C158.411 20.2035 158.266 20.1721 158.163 20.1081C158.061 20.0446 157.974 19.9509 157.902 19.827L157.054 18.3301C156.986 18.2032 156.896 18.1095 156.785 18.049C156.674 17.989 156.548 17.9582 156.409 17.9582H155.913V20.2087H154.861V15.0808H155.913V17.2354H156.34C156.477 17.2354 156.591 17.2086 156.683 17.1545C156.774 17.1015 156.852 17.0194 156.917 16.9089L157.867 15.3718ZM164.452 20.2038V15.0805H163.816C163.734 15.0805 163.661 15.1091 163.596 15.1655C163.53 15.2231 163.478 15.2848 163.439 15.3518L161.27 18.4054C161.201 18.5061 161.135 18.633 161.069 18.7872C161.082 18.6999 161.093 18.6132 161.1 18.5259C161.109 18.4392 161.113 18.3606 161.113 18.2902V15.0805H160.06V20.2084H160.697C160.779 20.2084 160.852 20.1793 160.917 20.1206C160.982 20.0624 161.035 20.0013 161.074 19.9372L163.243 16.8783C163.279 16.8283 163.312 16.7724 163.343 16.7101C163.374 16.6484 163.406 16.5809 163.439 16.507C163.426 16.5943 163.416 16.6793 163.41 16.7631C163.403 16.8469 163.399 16.9237 163.399 16.9941V20.2038H164.452ZM169.011 17.0644C169.011 16.8834 168.986 16.7152 168.935 16.5592C168.884 16.4038 168.81 16.2682 168.712 16.153C168.614 16.0372 168.492 15.947 168.347 15.8812C168.202 15.816 168.034 15.7834 167.845 15.7834C167.464 15.7834 167.163 15.8957 166.944 16.1198C166.726 16.3445 166.587 16.6593 166.528 17.0644H169.011ZM166.499 17.7273C166.512 18.0188 166.556 18.2708 166.631 18.4833C166.706 18.6957 166.807 18.8726 166.932 19.0135C167.058 19.1537 167.208 19.2585 167.383 19.3271C167.558 19.3958 167.753 19.4302 167.968 19.4302C168.173 19.4302 168.351 19.4057 168.501 19.3574C168.651 19.3085 168.782 19.255 168.893 19.1968C169.004 19.138 169.099 19.0845 169.177 19.0361C169.256 18.9873 169.327 18.9628 169.393 18.9628C169.477 18.9628 169.543 18.9966 169.588 19.0635L169.887 19.4604C169.763 19.6106 169.623 19.738 169.466 19.8416C169.309 19.9458 169.142 20.0302 168.967 20.0954C168.791 20.1611 168.609 20.2077 168.423 20.2362C168.237 20.2647 168.056 20.2787 167.88 20.2787C167.534 20.2787 167.212 20.2193 166.917 20.1006C166.622 19.9819 166.366 19.8067 166.149 19.5757C165.932 19.3446 165.762 19.0583 165.639 18.7166C165.517 18.375 165.456 17.9822 165.456 17.5369C165.456 17.1814 165.51 16.8502 165.62 16.5423C165.729 16.2339 165.886 15.9662 166.09 15.7386C166.294 15.5105 166.542 15.3306 166.834 15.1985C167.127 15.0664 167.457 15.0001 167.826 15.0001C168.133 15.0001 168.417 15.0513 168.678 15.1531C168.939 15.2556 169.164 15.4051 169.353 15.6024C169.543 15.8003 169.69 16.0424 169.797 16.3287C169.902 16.6151 169.956 16.9404 169.956 17.3053C169.956 17.4729 169.938 17.5853 169.902 17.6423C169.866 17.6987 169.8 17.7273 169.706 17.7273H166.499ZM113.392 31.7507V26.6274H112.755C112.674 26.6274 112.601 26.6554 112.535 26.7124C112.47 26.77 112.418 26.8317 112.378 26.8986L110.21 29.9523C110.141 30.053 110.074 30.1799 110.009 30.3341C110.022 30.2468 110.032 30.1601 110.04 30.0728C110.049 29.9861 110.053 29.9069 110.053 29.8371V26.6274H109V31.7553H109.637C109.719 31.7553 109.792 31.7262 109.857 31.6675C109.922 31.6093 109.974 31.5481 110.014 31.4841L112.183 28.4252C112.219 28.3751 112.252 28.3193 112.283 28.257C112.314 28.1953 112.346 28.1278 112.378 28.0539C112.365 28.1412 112.356 28.2262 112.349 28.31C112.343 28.3938 112.339 28.4706 112.339 28.541V31.7507H113.392ZM118.934 26.6274V31.7507H117.887V29.4251H115.727V31.7507H114.675V26.6274H115.727V28.6114H117.887V26.6274H118.934ZM124.788 30.4847C124.502 30.7995 124.093 30.9753 123.561 31.012V27.3606C124.093 27.3978 124.502 27.5742 124.788 27.8902C125.073 28.2068 125.216 28.6398 125.216 29.1892C125.216 29.738 125.073 30.1704 124.788 30.4847ZM121.414 27.8902C121.7 27.5742 122.109 27.3978 122.641 27.3606V31.012C122.109 30.9753 121.7 30.7995 121.414 30.4847C121.129 30.1704 120.986 29.738 120.986 29.1892C120.986 28.6398 121.129 28.2068 121.414 27.8902ZM124.692 26.778C124.362 26.647 123.995 26.572 123.591 26.5516V24.5176H122.606V26.5516C122.201 26.572 121.835 26.6482 121.505 26.7803C121.175 26.913 120.894 27.0928 120.662 27.3204C120.431 27.548 120.251 27.8198 120.124 28.134C119.997 28.4489 119.933 28.7987 119.933 29.1839C119.933 29.5721 119.997 29.9236 120.124 30.2385C120.251 30.5534 120.431 30.8246 120.662 31.0521C120.894 31.2797 121.175 31.4601 121.505 31.5922C121.835 31.7249 122.201 31.8006 122.606 31.8209V33.4883H123.591V31.8209C123.995 31.8006 124.362 31.7249 124.692 31.5922C125.021 31.4601 125.302 31.2797 125.534 31.0521C125.766 30.8246 125.945 30.5534 126.073 30.2385C126.2 29.9236 126.264 29.5721 126.264 29.1839C126.264 28.7952 126.2 28.4436 126.073 28.1288C125.945 27.8145 125.766 27.5433 125.534 27.3152C125.302 27.0876 125.021 26.9084 124.692 26.778ZM129.417 30.9821C129.867 30.9821 130.203 30.8267 130.423 30.5177C130.643 30.2075 130.754 29.7646 130.754 29.189C130.754 28.6128 130.643 28.1688 130.423 27.8551C130.203 27.5426 129.867 27.3854 129.417 27.3854C128.959 27.3854 128.62 27.5426 128.398 27.8551C128.176 28.1688 128.065 28.6128 128.065 29.189C128.065 29.7646 128.176 30.2075 128.398 30.5177C128.62 30.8267 128.959 30.9821 129.417 30.9821ZM129.417 26.5468C129.785 26.5468 130.119 26.609 130.418 26.733C130.717 26.8564 130.971 27.0321 131.182 27.2603C131.393 27.4878 131.555 27.7643 131.669 28.089C131.783 28.4138 131.841 28.7787 131.841 29.1838C131.841 29.5888 131.783 29.9537 131.669 30.2791C131.555 30.6038 131.393 30.8808 131.182 31.1101C130.971 31.3394 130.717 31.5158 130.418 31.6398C130.119 31.7637 129.785 31.826 129.417 31.826C129.045 31.826 128.709 31.7637 128.41 31.6398C128.112 31.5158 127.857 31.3394 127.644 31.1101C127.432 30.8808 127.269 30.6038 127.155 30.2791C127.04 29.9537 126.983 29.5888 126.983 29.1838C126.983 28.7787 127.04 28.4138 127.155 28.089C127.269 27.7643 127.432 27.4878 127.644 27.2603C127.857 27.0321 128.112 26.8564 128.41 26.733C128.709 26.609 129.045 26.5468 129.417 26.5468ZM134.384 30.8743C134.209 30.7952 134.048 30.659 133.901 30.4646V28.0889C134.068 27.8678 134.248 27.6978 134.443 27.5791C134.636 27.4604 134.868 27.4004 135.135 27.4004C135.311 27.4004 135.47 27.433 135.61 27.4959C135.75 27.5599 135.869 27.6623 135.968 27.8026C136.066 27.9428 136.141 28.125 136.193 28.3473C136.245 28.5702 136.271 28.8391 136.271 29.154C136.271 29.7627 136.156 30.2219 135.926 30.5298C135.696 30.8382 135.375 30.9919 134.964 30.9919C134.752 30.9919 134.559 30.9529 134.384 30.8743ZM134.56 26.7626C134.294 26.9168 134.056 27.1193 133.847 27.3708L133.759 26.833C133.72 26.6956 133.629 26.6276 133.485 26.6276H132.849V33.4531H133.901V31.2782C134.068 31.4487 134.253 31.5826 134.457 31.6798C134.661 31.777 134.91 31.8259 135.204 31.8259C135.536 31.8259 135.835 31.7578 136.1 31.6222C136.364 31.4866 136.589 31.2992 136.776 31.06C136.961 30.8202 137.104 30.5373 137.204 30.2109C137.303 29.8844 137.353 29.5323 137.353 29.154C137.353 28.7314 137.308 28.3572 137.218 28.0313C137.129 27.7042 137.002 27.4307 136.839 27.2101C136.676 26.989 136.48 26.8208 136.251 26.7055C136.023 26.5897 135.769 26.5321 135.488 26.5321C135.135 26.5321 134.826 26.6089 134.56 26.7626ZM144.051 26.6124V31.7507H143.106V28.6511C143.106 28.544 143.112 28.4229 143.125 28.2873C143.139 28.1517 143.155 28.0254 143.174 27.9079L141.583 30.8411C141.551 30.9016 141.508 30.9493 141.456 30.9843C141.404 31.0198 141.345 31.0372 141.28 31.0372H141.167C141.102 31.0372 141.044 31.0198 140.993 30.9843C140.943 30.9493 140.901 30.9016 140.868 30.8411L139.248 27.8927C139.267 28.0103 139.284 28.1383 139.299 28.2768C139.314 28.4165 139.321 28.5405 139.321 28.6511V31.7507H138.371V26.6124H139.233C139.305 26.6124 139.376 26.6287 139.446 26.6624C139.516 26.6962 139.578 26.7613 139.63 26.858L140.986 29.2389C141.031 29.3262 141.073 29.4199 141.111 29.5206C141.148 29.6207 141.185 29.7213 141.221 29.822C141.257 29.7213 141.294 29.6207 141.334 29.5206C141.373 29.4199 141.415 29.3262 141.461 29.2389L142.797 26.858C142.846 26.7579 142.907 26.6921 142.979 26.6601C143.05 26.6281 143.122 26.6124 143.194 26.6124H144.051ZM147.057 29.6035C147.315 29.5546 147.631 29.5238 148.007 29.5104V30.4596C147.821 30.6604 147.629 30.8134 147.431 30.9188C147.234 31.0247 146.998 31.0771 146.724 31.0771C146.616 31.0771 146.517 31.0649 146.428 31.0393C146.338 31.0142 146.26 30.9747 146.193 30.9188C146.126 30.8641 146.074 30.7937 146.036 30.7081C145.999 30.6231 145.98 30.5195 145.98 30.3991C145.98 30.2757 146.015 30.1616 146.085 30.0574C146.155 29.9538 146.27 29.8642 146.43 29.7891C146.59 29.7135 146.799 29.6518 147.057 29.6035ZM147.234 26.5318C146.453 26.5318 145.781 26.8012 145.216 27.3401L145.407 27.6917C145.439 27.7493 145.481 27.797 145.532 27.8354C145.583 27.8738 145.644 27.893 145.716 27.893C145.804 27.893 145.887 27.8668 145.965 27.815C146.043 27.7632 146.134 27.7068 146.234 27.6468C146.336 27.5863 146.455 27.5304 146.592 27.4787C146.729 27.4263 146.899 27.4007 147.101 27.4007C147.398 27.4007 147.624 27.4909 147.776 27.6719C147.93 27.8529 148.007 28.1276 148.007 28.496V28.837C147.439 28.8504 146.962 28.9057 146.575 29.0029C146.188 29.1001 145.876 29.2235 145.64 29.3724C145.402 29.5214 145.233 29.6896 145.13 29.877C145.027 30.0644 144.976 30.2571 144.976 30.4544C144.976 30.686 145.013 30.8868 145.086 31.0573C145.16 31.2278 145.26 31.371 145.388 31.4868C145.515 31.602 145.666 31.6882 145.84 31.7452C146.015 31.8022 146.203 31.8308 146.406 31.8308C146.588 31.8308 146.756 31.815 146.908 31.783C147.059 31.7516 147.201 31.7039 147.334 31.6399C147.465 31.5764 147.594 31.499 147.718 31.4065C147.842 31.3145 147.967 31.2098 148.095 31.0922L148.198 31.5095C148.233 31.6067 148.278 31.6707 148.33 31.7027C148.382 31.7347 148.459 31.7504 148.56 31.7504H149.03V28.496C149.03 28.2044 148.99 27.939 148.91 27.6998C148.83 27.4606 148.714 27.2534 148.563 27.0794C148.411 26.9054 148.223 26.7704 147.999 26.6749C147.776 26.5795 147.521 26.5318 147.234 26.5318ZM155.434 30.9367V33.1616C155.434 33.2623 155.406 33.342 155.351 33.4002C155.295 33.459 155.223 33.4881 155.135 33.4881H154.484V31.7503H150.258V26.6276H151.312V30.9367H153.47V26.6276H154.519V30.9367H155.434ZM160.643 31.7507V26.6274H160.007C159.925 26.6274 159.851 26.6554 159.787 26.7124C159.721 26.77 159.669 26.8317 159.63 26.8986L157.46 29.9523C157.392 30.053 157.325 30.1799 157.26 30.3341C157.273 30.2468 157.284 30.1601 157.292 30.0728C157.3 29.9861 157.304 29.9069 157.304 29.8371V26.6274H156.251V31.7553H156.888C156.97 31.7553 157.043 31.7262 157.108 31.6675C157.173 31.6093 157.226 31.5481 157.265 31.4841L159.434 28.4252C159.47 28.3751 159.504 28.3193 159.534 28.257C159.565 28.1953 159.597 28.1278 159.63 28.0539C159.617 28.1412 159.607 28.2262 159.6 28.31C159.594 28.3938 159.591 28.4706 159.591 28.541V31.7507H160.643ZM164.085 30.9821C164.535 30.9821 164.871 30.8267 165.091 30.5177C165.311 30.2075 165.421 29.7646 165.421 29.189C165.421 28.6128 165.311 28.1688 165.091 27.8551C164.871 27.5426 164.535 27.3854 164.085 27.3854C163.628 27.3854 163.289 27.5426 163.066 27.8551C162.845 28.1688 162.734 28.6128 162.734 29.189C162.734 29.7646 162.845 30.2075 163.066 30.5177C163.289 30.8267 163.628 30.9821 164.085 30.9821ZM164.085 26.5468C164.454 26.5468 164.788 26.609 165.086 26.733C165.385 26.8564 165.639 27.0321 165.85 27.2603C166.06 27.4878 166.223 27.7643 166.337 28.089C166.452 28.4138 166.508 28.7787 166.508 29.1838C166.508 29.5888 166.452 29.9537 166.337 30.2791C166.223 30.6038 166.06 30.8808 165.85 31.1101C165.639 31.3394 165.385 31.5158 165.086 31.6398C164.788 31.7637 164.454 31.826 164.085 31.826C163.713 31.826 163.378 31.7637 163.079 31.6398C162.78 31.5158 162.525 31.3394 162.312 31.1101C162.1 30.8808 161.937 30.6038 161.823 30.2791C161.709 29.9537 161.652 29.5888 161.652 29.1838C161.652 28.7787 161.709 28.4138 161.823 28.089C161.937 27.7643 162.1 27.4878 162.312 27.2603C162.525 27.0321 162.78 26.8564 163.079 26.733C163.378 26.609 163.713 26.5468 164.085 26.5468ZM171.777 31.7507V26.6274H170.729V28.6114H168.57V26.6274H167.517V31.7507H168.57V29.4251H170.729V31.7507H171.777ZM177.324 26.6274V31.7507H176.276V29.4251H174.117V31.7507H173.064V26.6274H174.117V28.6114H176.276V26.6274H177.324ZM184.496 31.7504H183.443V26.6272H184.496V31.7504ZM180.998 30.9042C180.882 30.9461 180.748 30.9671 180.594 30.9671H179.61V29.3544H180.585C180.754 29.3544 180.898 29.3759 181.015 29.4173C181.133 29.4592 181.228 29.5162 181.301 29.5884C181.375 29.6599 181.429 29.7437 181.463 29.8392C181.498 29.9346 181.515 30.0359 181.515 30.143C181.515 30.2635 181.496 30.374 181.458 30.4747C181.421 30.5754 181.363 30.6615 181.287 30.7331C181.211 30.8053 181.114 30.8623 180.998 30.9042ZM181.456 28.7043C181.217 28.6188 180.926 28.5763 180.579 28.5763H179.61V26.6272H178.611V31.7504H180.594C180.892 31.7504 181.155 31.7115 181.385 31.6323C181.615 31.5537 181.809 31.4426 181.968 31.2982C182.126 31.1545 182.246 30.9845 182.328 30.7884C182.409 30.5929 182.45 30.3758 182.45 30.1383C182.45 29.9341 182.417 29.7373 182.352 29.5482C182.287 29.3591 182.18 29.192 182.034 29.0483C181.887 28.9039 181.694 28.7899 181.456 28.7043ZM189.055 28.6113C189.055 28.4303 189.03 28.2621 188.979 28.1061C188.928 27.9507 188.854 27.8151 188.756 27.6999C188.658 27.584 188.536 27.4938 188.391 27.4281C188.246 27.3629 188.079 27.3303 187.889 27.3303C187.508 27.3303 187.207 27.4426 186.989 27.6667C186.77 27.8913 186.631 28.2062 186.573 28.6113H189.055ZM186.543 29.2741C186.556 29.5657 186.601 29.8177 186.675 30.0301C186.75 30.2426 186.851 30.4195 186.976 30.5598C187.102 30.7006 187.252 30.8054 187.427 30.874C187.602 30.9427 187.797 30.977 188.012 30.977C188.217 30.977 188.395 30.9526 188.545 30.9037C188.695 30.8554 188.826 30.8019 188.937 30.7437C189.048 30.6849 189.143 30.6313 189.221 30.583C189.3 30.5341 189.371 30.5097 189.437 30.5097C189.521 30.5097 189.587 30.5435 189.632 30.6104L189.931 31.0073C189.807 31.1575 189.667 31.2849 189.51 31.3885C189.353 31.4927 189.187 31.5771 189.011 31.6423C188.835 31.708 188.653 31.7546 188.467 31.7831C188.281 31.8116 188.1 31.8256 187.924 31.8256C187.578 31.8256 187.257 31.7662 186.961 31.6475C186.666 31.5288 186.41 31.3536 186.193 31.1225C185.976 30.8915 185.806 30.6052 185.684 30.2635C185.561 29.9219 185.501 29.5291 185.501 29.0838C185.501 28.7282 185.555 28.3971 185.664 28.0892C185.773 27.7808 185.93 27.513 186.134 27.2855C186.338 27.0573 186.586 26.8775 186.878 26.7454C187.171 26.6133 187.501 26.5469 187.87 26.5469C188.177 26.5469 188.461 26.5982 188.722 26.7C188.983 26.8024 189.208 26.952 189.397 27.1493C189.587 27.3472 189.735 27.5893 189.841 27.8756C189.947 28.162 190 28.4873 190 28.8522C190 29.0198 189.982 29.1321 189.946 29.1892C189.91 29.2456 189.845 29.2741 189.75 29.2741H186.543ZM110.535 42.4206C110.361 42.3421 110.2 42.2059 110.053 42.0115V39.6352C110.219 39.4147 110.4 39.2447 110.594 39.126C110.788 39.0073 111.019 38.9473 111.287 38.9473C111.463 38.9473 111.622 38.9799 111.762 39.0428C111.902 39.1068 112.021 39.2086 112.119 39.3495C112.217 39.4897 112.292 39.6719 112.345 39.8942C112.397 40.1171 112.423 40.386 112.423 40.7008C112.423 41.3096 112.308 41.7688 112.077 42.0767C111.848 42.3851 111.527 42.5388 111.116 42.5388C110.904 42.5388 110.71 42.4998 110.535 42.4206ZM110.711 38.3095C110.445 38.4637 110.208 38.6662 109.999 38.9176L109.911 38.3799C109.872 38.2425 109.781 38.1739 109.637 38.1739H109V45H110.053V42.8251C110.219 42.9956 110.404 43.1295 110.609 43.2267C110.813 43.3239 111.062 43.3728 111.355 43.3728C111.688 43.3728 111.987 43.3047 112.251 43.1691C112.516 43.0335 112.741 42.8461 112.927 42.6063C113.113 42.3671 113.256 42.0842 113.355 41.7577C113.455 41.4312 113.505 41.0791 113.505 40.7008C113.505 40.2783 113.46 39.9041 113.37 39.5782C113.28 39.2511 113.154 38.9776 112.99 38.757C112.827 38.5359 112.632 38.3677 112.403 38.2518C112.175 38.136 111.92 38.079 111.639 38.079C111.287 38.079 110.977 38.1558 110.711 38.3095ZM117.799 40.1581C117.799 39.9771 117.774 39.8089 117.722 39.6529C117.672 39.4975 117.598 39.3619 117.5 39.2467C117.402 39.1309 117.28 39.0407 117.135 38.9749C116.99 38.9097 116.823 38.8771 116.633 38.8771C116.251 38.8771 115.951 38.9895 115.732 39.2135C115.513 39.4382 115.375 39.753 115.316 40.1581H117.799ZM115.287 40.821C115.3 41.1125 115.344 41.3646 115.419 41.577C115.494 41.7894 115.595 41.9663 115.72 42.1066C115.846 42.2474 115.996 42.3522 116.17 42.4209C116.345 42.4895 116.541 42.5239 116.756 42.5239C116.961 42.5239 117.139 42.4994 117.289 42.4505C117.439 42.4022 117.57 42.3487 117.681 42.2899C117.792 42.2317 117.887 42.1782 117.965 42.1293C118.044 42.081 118.115 42.0565 118.18 42.0565C118.265 42.0565 118.331 42.0903 118.376 42.1572L118.675 42.5541C118.551 42.7043 118.41 42.8317 118.254 42.9353C118.097 43.0395 117.93 43.1239 117.754 43.1891C117.578 43.2549 117.397 43.3014 117.211 43.3299C117.025 43.3584 116.844 43.3724 116.667 43.3724C116.322 43.3724 116 43.313 115.705 43.1943C115.41 43.0756 115.154 42.9004 114.937 42.6694C114.72 42.4383 114.55 42.152 114.428 41.8104C114.305 41.4687 114.244 41.0759 114.244 40.6301C114.244 40.2751 114.298 39.9439 114.408 39.6355C114.517 39.3276 114.674 39.0599 114.878 38.8323C115.082 38.6042 115.33 38.4243 115.622 38.2922C115.914 38.1595 116.245 38.0938 116.614 38.0938C116.92 38.0938 117.205 38.145 117.466 38.2468C117.727 38.3493 117.952 38.4988 118.141 38.6961C118.331 38.894 118.478 39.1361 118.584 39.4219C118.69 39.7088 118.743 40.0341 118.743 40.399C118.743 40.5666 118.726 40.679 118.689 40.7354C118.654 40.7925 118.588 40.821 118.494 40.821H115.287ZM126.538 43.2972V38.174H125.49V42.4836H123.659V38.174H122.606V42.4836H120.775V38.174H119.722V43.2972H126.538ZM131.101 40.1581C131.101 39.9771 131.076 39.8089 131.025 39.6529C130.974 39.4975 130.9 39.3619 130.802 39.2467C130.704 39.1309 130.582 39.0407 130.437 38.9749C130.292 38.9097 130.125 38.8771 129.935 38.8771C129.553 38.8771 129.253 38.9895 129.034 39.2135C128.816 39.4382 128.677 39.753 128.618 40.1581H131.101ZM128.589 40.821C128.602 41.1125 128.646 41.3646 128.721 41.577C128.796 41.7894 128.897 41.9663 129.023 42.1066C129.148 42.2474 129.298 42.3522 129.473 42.4209C129.647 42.4895 129.843 42.5239 130.058 42.5239C130.264 42.5239 130.441 42.4994 130.592 42.4505C130.742 42.4022 130.872 42.3487 130.983 42.2899C131.094 42.2317 131.189 42.1782 131.267 42.1293C131.346 42.081 131.418 42.0565 131.482 42.0565C131.568 42.0565 131.633 42.0903 131.678 42.1572L131.977 42.5541C131.853 42.7043 131.713 42.8317 131.556 42.9353C131.399 43.0395 131.233 43.1239 131.057 43.1891C130.88 43.2549 130.7 43.3014 130.513 43.3299C130.327 43.3584 130.146 43.3724 129.97 43.3724C129.624 43.3724 129.303 43.313 129.008 43.1943C128.712 43.0756 128.456 42.9004 128.239 42.6694C128.022 42.4383 127.853 42.152 127.73 41.8104C127.607 41.4687 127.546 41.0759 127.546 40.6301C127.546 40.2751 127.601 39.9439 127.71 39.6355C127.82 39.3276 127.976 39.0599 128.181 38.8323C128.384 38.6042 128.633 38.4243 128.924 38.2922C129.216 38.1595 129.547 38.0938 129.916 38.0938C130.223 38.0938 130.507 38.145 130.768 38.2468C131.029 38.3493 131.254 38.4988 131.444 38.6961C131.633 38.894 131.78 39.1361 131.887 39.4219C131.992 39.7088 132.046 40.0341 132.046 40.399C132.046 40.5666 132.028 40.679 131.992 40.7354C131.956 40.7925 131.89 40.821 131.796 40.821H128.589ZM137.284 43.2972V38.174H136.237V40.158H134.078V38.174H133.025V43.2972H134.078V40.9716H136.237V43.2972H137.284ZM142.964 38.174V43.2972H141.911V40.0875C141.911 40.0171 141.915 39.9403 141.921 39.8571C141.928 39.7733 141.937 39.6877 141.95 39.6004C141.918 39.6743 141.886 39.7418 141.855 39.8041C141.824 39.8658 141.791 39.9217 141.755 39.9723L139.585 43.0312C139.546 43.0947 139.494 43.1558 139.429 43.2146C139.364 43.2728 139.29 43.3025 139.209 43.3025H138.572V38.174H139.625V41.3836C139.625 41.4541 139.621 41.5326 139.612 41.6193C139.604 41.7066 139.593 41.7939 139.58 41.8807C139.646 41.727 139.713 41.5996 139.781 41.4989L141.95 38.4452C141.99 38.3783 142.042 38.3166 142.107 38.2595C142.172 38.2025 142.246 38.174 142.327 38.174H142.964ZM146.861 38.8875V40.5147H146.2C145.903 40.5147 145.667 40.4426 145.492 40.2982C145.318 40.1545 145.23 39.9572 145.23 39.7058C145.23 39.6121 145.245 39.5166 145.275 39.42C145.304 39.3228 145.353 39.2349 145.421 39.1564C145.49 39.0772 145.582 39.0126 145.696 38.9626C145.81 38.9125 145.952 38.8875 146.122 38.8875H146.861ZM147.865 43.2972V38.174H146.092C145.749 38.174 145.457 38.2165 145.213 38.302C144.97 38.3876 144.772 38.4999 144.619 38.6384C144.465 38.7775 144.353 38.9358 144.283 39.1133C144.213 39.2908 144.178 39.4718 144.178 39.6557C144.178 39.7966 144.201 39.938 144.249 40.08C144.296 40.2226 144.372 40.3541 144.477 40.4746C144.581 40.595 144.718 40.7004 144.888 40.7906C145.058 40.8814 145.263 40.9448 145.505 40.9821C145.283 41.0618 145.11 41.2131 144.986 41.4337L143.639 43.2972H144.364C144.551 43.2972 144.69 43.2664 144.782 43.2047C144.876 43.1424 144.956 43.0481 145.025 42.9207L145.96 41.5495C145.993 41.496 146.026 41.4477 146.06 41.4034C146.094 41.3604 146.134 41.3231 146.178 41.2928C146.222 41.2632 146.275 41.2399 146.337 41.223C146.399 41.2061 146.478 41.198 146.572 41.198H146.861V43.2972H147.865Z" fill="#BDBDBD"/>
<path fill-rule="evenodd" clip-rule="evenodd" d="M72.1437 12.2762C72.1653 11.9646 72.066 11.664 71.8651 11.4287C71.6642 11.1928 71.385 11.0512 71.0797 11.0298C71.0519 11.0275 71.0247 11.0269 70.998 11.0269C70.7228 11.0269 70.4561 11.1287 70.2478 11.3131C70.0163 11.5183 69.8773 11.8027 69.8563 12.1137C69.8347 12.4242 69.934 12.7253 70.1349 12.9612C70.3363 13.1965 70.615 13.3387 70.9203 13.3601C71.2222 13.3832 71.5195 13.2826 71.7522 13.0768C71.9831 12.8716 72.1222 12.5878 72.1437 12.2762ZM85.3062 37.591C85.6104 37.6136 85.9055 37.5136 86.1387 37.3072C86.3697 37.1025 86.5087 36.8181 86.5297 36.5071C86.5513 36.1955 86.4525 35.8943 86.2516 35.6591C86.0502 35.4238 85.7716 35.2822 85.4663 35.2608C85.4385 35.2585 85.4112 35.2573 85.3845 35.2573C85.1093 35.2573 84.8426 35.3596 84.6338 35.544C84.4028 35.7487 84.2638 36.0331 84.2422 36.3441C84.2212 36.6551 84.32 36.9557 84.5214 37.1921C84.7229 37.4274 85.0015 37.5691 85.3062 37.591ZM98 27.5052C98 12.3143 85.9117 0 70.9997 0C56.0883 0 44 12.3143 44 27.5052C44 40.6913 53.109 51.7078 65.266 54.3867V37.7662C65.266 37.6824 65.2331 37.6003 65.1746 37.5413L62.3997 34.7133C62.3407 34.6532 62.2618 34.6203 62.1784 34.6203H59.3382C59.2082 34.6203 59.0942 34.7012 59.0471 34.8266C58.8961 35.2307 58.6464 35.5949 58.3235 35.8805C57.8497 36.3007 57.2436 36.532 56.6172 36.532H56.5916C55.8931 36.5256 55.2093 36.214 54.7178 35.6764C54.227 35.1405 53.9699 34.426 54.0125 33.7161C54.055 32.9993 54.3717 32.3443 54.904 31.8732C55.4277 31.409 56.1019 31.1795 56.7953 31.2286C57.4894 31.2784 58.1238 31.5998 58.5806 32.1351C58.7815 32.3703 58.9381 32.6374 59.0471 32.9288C59.0936 33.0531 59.2077 33.1334 59.3376 33.1334H62.6965C62.8355 33.1334 62.9666 33.1889 63.0648 33.2889L66.574 36.8638C66.6722 36.9638 66.7267 37.0973 66.7267 37.239L66.7261 54.6659C67.8843 54.8537 69.0675 54.9676 70.2699 55V33.2866C70.2699 33.2028 70.237 33.1207 70.1786 33.0617L62.4008 25.1385C62.3429 25.079 62.2618 25.0449 62.1795 25.0449H56.8447C56.7148 25.0449 56.6007 25.1258 56.5542 25.2513C56.4027 25.6553 56.1524 26.0195 55.8301 26.3051C55.3562 26.7254 54.7502 26.9566 54.1237 26.9566H54.101C53.3996 26.9502 52.7164 26.6387 52.2244 26.101C51.7335 25.5652 51.477 24.8506 51.519 24.1408C51.5616 23.4239 51.8782 22.769 52.4105 22.2978C52.9343 21.833 53.6073 21.6024 54.3019 21.6527C54.9965 21.7024 55.6303 22.0244 56.0871 22.5597C56.288 22.795 56.4446 23.0615 56.5536 23.3534C56.6001 23.4777 56.7142 23.5581 56.8441 23.5581H61.2006C61.3731 23.5581 61.5133 23.4153 61.5133 23.2395V20.0664C61.5133 19.9346 61.4327 19.8179 61.309 19.7693C60.2325 19.3467 59.5629 18.2773 59.6435 17.1072C59.6917 16.4002 60.0078 15.7545 60.5333 15.2886C61.0576 14.8244 61.7312 14.5949 62.4247 14.644C63.1192 14.6937 63.7531 15.0151 64.2099 15.5504C64.6662 16.0857 64.8915 16.7696 64.8432 17.4778C64.7944 18.1848 64.4783 18.8305 63.9529 19.2958C63.7213 19.5016 63.4592 19.6612 63.1737 19.7722C63.0517 19.8196 62.9728 19.9358 62.9728 20.0682V23.4864C62.9728 23.5702 63.0063 23.6523 63.0642 23.7118L70.0923 30.8708C70.1377 30.9176 70.1905 30.9003 70.2058 30.8939C70.2211 30.8876 70.2699 30.8616 70.2699 30.7957V14.9689C70.2699 14.8371 70.1899 14.7203 70.0657 14.6718C68.9892 14.2498 68.3201 13.1797 68.4001 12.0103C68.4489 11.3027 68.7644 10.657 69.2899 10.1916C69.8143 9.72683 70.4884 9.49733 71.1813 9.54647C71.8759 9.59618 72.5103 9.9176 72.9666 10.4529C73.4234 10.9882 73.6481 11.6727 73.5999 12.3802C73.5511 13.0872 73.235 13.7335 72.7101 14.1983C72.4785 14.4035 72.2164 14.5642 71.9309 14.6746C71.8089 14.722 71.7301 14.8382 71.7301 14.9706V34.6208C71.7301 34.6867 71.7789 34.7127 71.7942 34.7191C71.8089 34.7249 71.8617 34.7428 71.9077 34.696L78.9352 27.5364C78.9937 27.4775 79.0272 27.3954 79.0272 27.3115V21.3405C79.0272 21.2087 78.9466 21.0919 78.8229 21.0434C77.7464 20.6214 77.0768 19.5519 77.1568 18.3819C77.2056 17.6743 77.5217 17.0286 78.0466 16.5632C78.5715 16.0985 79.2456 15.8678 79.938 15.9181C80.6325 15.9678 81.267 16.2898 81.7232 16.8251C82.18 17.3598 82.4053 18.0443 82.3565 18.7519C82.3083 19.4594 81.9916 20.1052 81.4667 20.5705C81.2352 20.7757 80.973 20.9359 80.6876 21.0463C80.5656 21.0943 80.4867 21.2105 80.4867 21.3423V27.0676C80.4867 27.2433 80.6269 27.3861 80.7994 27.3861H85.1638C85.2938 27.3861 85.4078 27.3058 85.4549 27.1803C85.6053 26.7762 85.8555 26.4115 86.1779 26.1259C86.7022 25.6617 87.3764 25.4334 88.0693 25.4808C88.7644 25.5305 89.3983 25.8525 89.8545 26.3878C90.3113 26.9225 90.5361 27.6069 90.4878 28.3145C90.4396 29.0221 90.1235 29.6678 89.598 30.1332C89.0771 30.5945 88.399 30.8286 87.7066 30.7783C86.7034 30.7066 85.8209 30.0401 85.4577 29.0811C85.4095 28.955 85.2949 28.8729 85.1655 28.8729H79.8171C79.7337 28.8729 79.6554 28.9059 79.5963 28.9666L71.8214 36.8869C71.763 36.9459 71.7301 37.028 71.7301 37.1118V55C72.9325 54.9676 74.1157 54.8537 75.2745 54.6659L75.275 39.7877C75.275 39.6461 75.329 39.5126 75.4271 39.412L78.9364 35.8371C79.0351 35.7371 79.1662 35.6816 79.3052 35.6816L82.8848 35.6822C83.0239 35.1931 83.2962 34.759 83.6765 34.4225C84.2008 33.9578 84.875 33.7277 85.5678 33.7768C86.2619 33.8265 86.8963 34.1485 87.3531 34.6838C87.8093 35.2191 88.0341 35.903 87.9858 36.6106C87.9376 37.3182 87.6215 37.9645 87.096 38.4292C86.5757 38.8906 85.8981 39.1224 85.2047 39.0744C84.114 38.9969 83.1918 38.235 82.8865 37.1696H79.8228C79.7388 37.1696 79.661 37.2026 79.6014 37.2627L76.8254 40.0907C76.7664 40.1514 76.7334 40.2311 76.7334 40.3161V54.3867C88.891 51.7078 98 40.6913 98 27.5052ZM56.6932 32.712C56.666 32.7097 56.6387 32.7085 56.612 32.7085C56.3368 32.7085 56.0701 32.8103 55.8613 32.9953C55.6303 33.2005 55.4913 33.4849 55.4703 33.7959C55.4487 34.1063 55.5475 34.4075 55.7489 34.6428C55.9498 34.8787 56.229 35.0209 56.5337 35.0423C56.8368 35.0642 57.133 34.9648 57.3657 34.759C57.5972 34.5538 57.7362 34.2694 57.7572 33.9583C57.7793 33.6468 57.68 33.3462 57.4791 33.1109C57.2777 32.875 56.9991 32.7334 56.6932 32.712ZM87.8082 29.2944C88.1124 29.3186 88.4075 29.2175 88.6407 29.0111C88.8717 28.8065 89.0107 28.5221 89.0317 28.2105C89.0532 27.8995 88.9545 27.5983 88.7536 27.363C88.5522 27.1277 88.2735 26.9861 87.9677 26.9647C87.9399 26.9624 87.9132 26.9612 87.8865 26.9612C87.6107 26.9612 87.3446 27.0635 87.1358 27.248C86.9048 27.4526 86.7658 27.737 86.7442 28.048C86.7232 28.359 86.822 28.6596 87.0234 28.8961C87.2249 29.1313 87.5035 29.273 87.8082 29.2944ZM63.3865 17.3737C63.4081 17.0621 63.3093 16.7615 63.1085 16.5262C62.9076 16.2904 62.6284 16.1488 62.3231 16.1274C62.2953 16.1251 62.268 16.1245 62.2414 16.1245C61.9656 16.1245 61.6994 16.2262 61.4906 16.4106C61.2596 16.6158 61.1206 16.9003 61.0996 17.2113C61.078 17.5217 61.1768 17.8229 61.3782 18.0587C61.5797 18.294 61.8583 18.4362 62.1636 18.4576C62.4655 18.4802 62.7629 18.3802 62.9955 18.1744C63.2265 17.9691 63.3655 17.6847 63.3865 17.3737ZM80.5094 19.4485C80.7404 19.2438 80.8794 18.9594 80.9004 18.6478C80.922 18.3368 80.8232 18.0356 80.6218 17.8003C80.4209 17.5651 80.1422 17.4234 79.8364 17.4015C79.8091 17.3997 79.7819 17.3986 79.7552 17.3986C79.4794 17.3986 79.2133 17.5003 79.0045 17.6853C78.7735 17.8899 78.6345 18.1744 78.6129 18.4854C78.5919 18.7964 78.6907 19.097 78.8921 19.3328C79.0936 19.5687 79.3722 19.7103 79.6769 19.7317C79.9817 19.7548 80.2762 19.6543 80.5094 19.4485ZM54.9857 23.5349C55.1866 23.7702 55.2853 24.0714 55.2637 24.3824C55.2427 24.694 55.1037 24.9784 54.8728 25.183C54.6401 25.3894 54.3433 25.4894 54.0403 25.4669C53.7355 25.4449 53.4569 25.3033 53.2555 25.0674C53.054 24.8316 52.9553 24.531 52.9768 24.22C52.9978 23.9089 53.1369 23.6245 53.3678 23.4199C53.5766 23.2355 53.8428 23.1332 54.1186 23.1332C54.1453 23.1332 54.1725 23.1343 54.2003 23.1366C54.5056 23.158 54.7842 23.2996 54.9857 23.5349Z" fill="#BDBDBD"/>
</svg>
