<svg width="64" height="64" viewBox="0 0 64 64" fill="none" xmlns="http://www.w3.org/2000/svg">
<path fill-rule="evenodd" clip-rule="evenodd" d="M64 32C64 49.6731 49.6731 64 32 64C14.3269 64 0 49.6731 0 32C0 14.3269 14.3269 0 32 0C49.6731 0 64 14.3269 64 32ZM1.3617 32C1.3617 48.9211 15.0789 62.6383 32 62.6383C48.9211 62.6383 62.6383 48.9211 62.6383 32C62.6383 15.0789 48.9211 1.3617 32 1.3617C15.0789 1.3617 1.3617 15.0789 1.3617 32Z" fill="#DCDCDC"/>
<path fill-rule="evenodd" clip-rule="evenodd" d="M52.5863 23.038C52.5863 24.7533 51.2265 26.1439 49.549 26.1439C47.8716 26.1439 46.5117 24.7533 46.5117 23.038C46.5117 21.3227 47.8716 19.9321 49.549 19.9321C51.2265 19.9321 52.5863 21.3227 52.5863 23.038ZM47.8616 23.038C47.8616 23.991 48.6171 24.7635 49.549 24.7635C50.4809 24.7635 51.2364 23.991 51.2364 23.038C51.2364 22.085 50.4809 21.3125 49.549 21.3125C48.6171 21.3125 47.8616 22.085 47.8616 23.038Z" fill="#FF5252"/>
<path fill-rule="evenodd" clip-rule="evenodd" d="M41.7865 36.8417C41.7865 38.5571 40.4267 39.9476 38.7492 39.9476C37.0718 39.9476 35.7119 38.5571 35.7119 36.8417C35.7119 35.1264 37.0718 33.7358 38.7492 33.7358C40.4267 33.7358 41.7865 35.1264 41.7865 36.8417ZM37.0618 36.8417C37.0618 37.7947 37.8173 38.5672 38.7492 38.5672C39.6811 38.5672 40.4366 37.7947 40.4366 36.8417C40.4366 35.8888 39.6811 35.1162 38.7492 35.1162C37.8173 35.1162 37.0618 35.8888 37.0618 36.8417Z" fill="#FF5252"/>
<path fill-rule="evenodd" clip-rule="evenodd" d="M27.6127 27.8691C27.6127 29.5844 26.2528 30.9749 24.5754 30.9749C22.8979 30.9749 21.5381 29.5844 21.5381 27.8691C21.5381 26.1537 22.8979 24.7632 24.5754 24.7632C26.2528 24.7632 27.6127 26.1537 27.6127 27.8691ZM22.888 27.8691C22.888 28.822 23.6435 29.5946 24.5754 29.5946C25.5073 29.5946 26.2628 28.822 26.2628 27.8691C26.2628 26.9161 25.5073 26.1436 24.5754 26.1436C23.6435 26.1436 22.888 26.9161 22.888 27.8691Z" fill="#FF5252"/>
<path fill-rule="evenodd" clip-rule="evenodd" d="M17.4886 41.6733C17.4886 43.3886 16.1288 44.7791 14.4514 44.7791C12.7739 44.7791 11.4141 43.3886 11.4141 41.6733C11.4141 39.9579 12.7739 38.5674 14.4514 38.5674C16.1288 38.5674 17.4886 39.9579 17.4886 41.6733ZM12.764 41.6733C12.764 42.6262 13.5194 43.3988 14.4514 43.3988C15.3833 43.3988 16.1387 42.6262 16.1387 41.6733C16.1387 40.7203 15.3833 39.9478 14.4514 39.9478C13.5194 39.9478 12.764 40.7203 12.764 41.6733Z" fill="#FF5252"/>
<path d="M47.7477 24.4844L39.4893 35.2325L40.5507 36.0854L48.8092 25.3372L47.7477 24.4844Z" fill="#FF5252"/>
<path d="M22.7091 28.6362L15.5391 39.4412L16.6561 40.2163L23.8261 29.4113L22.7091 28.6362Z" fill="#FF5252"/>
<path d="M26.6872 28.6533L37.3086 34.8598L36.6389 36.0583L26.0175 29.8518L26.6872 28.6533Z" fill="#FF5252"/>
</svg>
