<svg width="64" height="64" viewBox="0 0 64 64" fill="none" xmlns="http://www.w3.org/2000/svg">
<path fill-rule="evenodd" clip-rule="evenodd" d="M48.3408 32.3403C48.3408 41.1769 41.1774 48.3403 32.3408 48.3403C23.5043 48.3403 16.3408 41.1769 16.3408 32.3403C16.3408 23.5038 23.5043 16.3403 32.3408 16.3403C41.1774 16.3403 48.3408 23.5038 48.3408 32.3403ZM17.7025 32.3403C17.7025 40.4248 24.2563 46.9786 32.3408 46.9786C40.4253 46.9786 46.9791 40.4248 46.9791 32.3403C46.9791 24.2558 40.4253 17.702 32.3408 17.702C24.2563 17.702 17.7025 24.2558 17.7025 32.3403Z" fill="#FF5252"/>
<path fill-rule="evenodd" clip-rule="evenodd" d="M64 32C64 49.6731 49.6731 64 32 64C14.3269 64 0 49.6731 0 32C0 14.3269 14.3269 0 32 0C49.6731 0 64 14.3269 64 32ZM1.3617 32C1.3617 48.9211 15.0789 62.6383 32 62.6383C48.9211 62.6383 62.6383 48.9211 62.6383 32C62.6383 15.0789 48.9211 1.3617 32 1.3617C15.0789 1.3617 1.3617 15.0789 1.3617 32Z" fill="#DCDCDC"/>
<path fill-rule="evenodd" clip-rule="evenodd" d="M25.5991 33.0281C23.1511 30.0396 25.1563 25.8726 28.4058 25.8726C29.9148 25.8726 31.2774 26.5262 32.4765 27.7958C33.3283 26.515 34.8437 25.8726 36.9311 25.8726C38.8753 25.8726 40.043 26.9177 40.278 28.6091C40.4606 29.9231 40.0537 31.5625 39.2839 32.9305C38.372 34.5508 36.3197 36.945 33.1091 40.151L32.6238 40.6355L32.1428 40.1468C29.3147 37.2738 27.1342 34.9021 25.5991 33.0281ZM28.4058 27.2343C26.3004 27.2343 24.936 30.0697 26.6525 32.1652C28.07 33.8956 30.0636 36.0751 32.6315 38.7007C35.4806 35.8225 37.3076 33.6658 38.0972 32.2627C38.7314 31.1356 39.0666 29.7851 38.9292 28.7964C38.7867 27.7705 38.1876 27.2343 36.9311 27.2343C34.8863 27.2343 33.7249 27.904 33.2736 29.2511L32.8612 30.4819L32.0831 29.443C30.9639 27.9489 29.748 27.2343 28.4058 27.2343Z" fill="#FF5252"/>
</svg>
