<svg width="53" height="15" viewBox="0 0 53 15" fill="none" xmlns="http://www.w3.org/2000/svg">
<rect width="53" height="15" rx="7.5" fill="url(#paint0_linear)"/>
<path d="M16.459 8.1582C16.3926 9.07617 16.0527 9.79883 15.4395 10.3262C14.8301 10.8535 14.0254 11.1172 13.0254 11.1172C11.9316 11.1172 11.0703 10.75 10.4414 10.0156C9.81641 9.27734 9.50391 8.26562 9.50391 6.98047V6.45898C9.50391 5.63867 9.64844 4.91602 9.9375 4.29102C10.2266 3.66602 10.6387 3.1875 11.1738 2.85547C11.7129 2.51953 12.3379 2.35156 13.0488 2.35156C14.0332 2.35156 14.8262 2.61523 15.4277 3.14258C16.0293 3.66992 16.377 4.41016 16.4707 5.36328H14.7129C14.6699 4.8125 14.5156 4.41406 14.25 4.16797C13.9883 3.91797 13.5879 3.79297 13.0488 3.79297C12.4629 3.79297 12.0234 4.00391 11.7305 4.42578C11.4414 4.84375 11.293 5.49414 11.2852 6.37695V7.02148C11.2852 7.94336 11.4238 8.61719 11.7012 9.04297C11.9824 9.46875 12.4238 9.68164 13.0254 9.68164C13.5684 9.68164 13.9727 9.55859 14.2383 9.3125C14.5078 9.0625 14.6621 8.67773 14.7012 8.1582H16.459ZM19.9863 8.66211H19.3066V11H17.6133V4.66016H19.3066V7.04492H19.9102L21.293 4.66016H23.4316L21.3574 7.67773L23.625 11H21.3691L19.9863 8.66211ZM23.6602 7.77148C23.6602 7.14258 23.7812 6.58203 24.0234 6.08984C24.2656 5.59766 24.6133 5.2168 25.0664 4.94727C25.5234 4.67773 26.0527 4.54297 26.6543 4.54297C27.5098 4.54297 28.207 4.80469 28.7461 5.32812C29.2891 5.85156 29.5918 6.5625 29.6543 7.46094L29.666 7.89453C29.666 8.86719 29.3945 9.64844 28.8516 10.2383C28.3086 10.8242 27.5801 11.1172 26.666 11.1172C25.752 11.1172 25.0215 10.8242 24.4746 10.2383C23.9316 9.65234 23.6602 8.85547 23.6602 7.84766V7.77148ZM25.3535 7.89453C25.3535 8.49609 25.4668 8.95703 25.6934 9.27734C25.9199 9.59375 26.2441 9.75195 26.666 9.75195C27.0762 9.75195 27.3965 9.5957 27.627 9.2832C27.8574 8.9668 27.9727 8.46289 27.9727 7.77148C27.9727 7.18164 27.8574 6.72461 27.627 6.40039C27.3965 6.07617 27.0723 5.91406 26.6543 5.91406C26.2402 5.91406 25.9199 6.07617 25.6934 6.40039C25.4668 6.7207 25.3535 7.21875 25.3535 7.89453ZM36.416 7.88867C36.416 8.86523 36.1934 9.64844 35.748 10.2383C35.3066 10.8242 34.709 11.1172 33.9551 11.1172C33.3145 11.1172 32.7969 10.8945 32.4023 10.4492V13.4375H30.709V4.66016H32.2793L32.3379 5.28125C32.748 4.78906 33.2832 4.54297 33.9434 4.54297C34.7246 4.54297 35.332 4.83203 35.7656 5.41016C36.1992 5.98828 36.416 6.78516 36.416 7.80078V7.88867ZM34.7227 7.76562C34.7227 7.17578 34.6172 6.7207 34.4062 6.40039C34.1992 6.08008 33.8965 5.91992 33.498 5.91992C32.9668 5.91992 32.6016 6.12305 32.4023 6.5293V9.125C32.6094 9.54297 32.9785 9.75195 33.5098 9.75195C34.3184 9.75195 34.7227 9.08984 34.7227 7.76562ZM37.207 7.77148C37.207 7.14258 37.3281 6.58203 37.5703 6.08984C37.8125 5.59766 38.1602 5.2168 38.6133 4.94727C39.0703 4.67773 39.5996 4.54297 40.2012 4.54297C41.0566 4.54297 41.7539 4.80469 42.293 5.32812C42.8359 5.85156 43.1387 6.5625 43.2012 7.46094L43.2129 7.89453C43.2129 8.86719 42.9414 9.64844 42.3984 10.2383C41.8555 10.8242 41.127 11.1172 40.2129 11.1172C39.2988 11.1172 38.5684 10.8242 38.0215 10.2383C37.4785 9.65234 37.207 8.85547 37.207 7.84766V7.77148ZM38.9004 7.89453C38.9004 8.49609 39.0137 8.95703 39.2402 9.27734C39.4668 9.59375 39.791 9.75195 40.2129 9.75195C40.623 9.75195 40.9434 9.5957 41.1738 9.2832C41.4043 8.9668 41.5195 8.46289 41.5195 7.77148C41.5195 7.18164 41.4043 6.72461 41.1738 6.40039C40.9434 6.07617 40.6191 5.91406 40.2012 5.91406C39.7871 5.91406 39.4668 6.07617 39.2402 6.40039C39.0137 6.7207 38.9004 7.21875 38.9004 7.89453Z" fill="white"/>
<defs>
<linearGradient id="paint0_linear" x1="0" y1="15" x2="53" y2="15" gradientUnits="userSpaceOnUse">
<stop stop-color="#F26A35"/>
<stop offset="1" stop-color="#EE3048"/>
</linearGradient>
</defs>
</svg>
