<svg width="90" height="90" viewBox="0 0 90 90" fill="none" xmlns="http://www.w3.org/2000/svg">
<path fill-rule="evenodd" clip-rule="evenodd" d="M90 45C90 69.8528 69.8528 90 45 90C20.1472 90 0 69.8528 0 45C0 20.1472 20.1472 0 45 0C69.8528 0 90 20.1472 90 45ZM1.91489 45C1.91489 68.7952 21.2048 88.0851 45 88.0851C68.7952 88.0851 88.0851 68.7952 88.0851 45C88.0851 21.2048 68.7952 1.91489 45 1.91489C21.2048 1.91489 1.91489 21.2048 1.91489 45Z" fill="#DCDCDC"/>
<path fill-rule="evenodd" clip-rule="evenodd" d="M39.963 22H51.037C54.3303 22 57 24.7858 57 28.2222V36H57.9545C61.2934 36 64 38.7541 64 42.1515V58.8485C64 62.2459 61.2934 65 57.9545 65H32.0455C28.7066 65 26 62.2459 26 58.8485V42.1515C26 38.7541 28.7066 36 32.0455 36H34V28.2222C34 24.7858 36.6697 22 39.963 22ZM55.2963 36H35.7037V28.2222C35.7037 25.7676 37.6106 23.7778 39.963 23.7778H51.037C53.3894 23.7778 55.2963 25.7676 55.2963 28.2222V36ZM34 37.7576H32.0455C29.6606 37.7576 27.7273 39.7248 27.7273 42.1515V58.8485C27.7273 61.2752 29.6606 63.2424 32.0455 63.2424H57.9545C60.3394 63.2424 62.2727 61.2752 62.2727 58.8485V42.1515C62.2727 39.7248 60.3394 37.7576 57.9545 37.7576H57V38H34V37.7576ZM45 43C47.7614 43 50 45.396 50 48.3517C50 50.307 49.0111 52.0709 47.4647 53.009C47.4633 53.164 47.4707 53.35 47.4949 53.8869C47.5219 54.4848 47.5319 54.8545 47.5247 55.2626C47.4847 57.5403 46.8118 59 45 59C43.1899 59 42.5109 57.5425 42.4539 55.256C42.4437 54.8486 42.4505 54.4862 42.4724 53.8777C42.4918 53.34 42.4973 53.1473 42.4934 52.9833C40.9699 52.038 40 50.2881 40 48.3517C40 45.396 42.2386 43 45 43ZM44.1199 55.2085C44.1557 56.6444 44.4221 57.2161 45 57.2161C45.5735 57.2161 45.8334 56.6525 45.8583 55.2291C45.8646 54.8716 45.8555 54.5335 45.8302 53.9732C45.798 53.2602 45.7932 53.118 45.8007 52.8609C45.8197 52.2071 45.9095 51.8362 46.4098 51.5859C47.5739 51.0033 48.3333 49.7513 48.3333 48.3517C48.3333 46.3813 46.841 44.7839 45 44.7839C43.159 44.7839 41.6667 46.3813 41.6667 48.3517C41.6667 49.734 42.4074 50.9732 43.5496 51.5652C44.0349 51.8167 44.1298 52.1885 44.156 52.8292C44.1667 53.0896 44.1627 53.2584 44.1379 53.9466C44.1172 54.5184 44.111 54.8506 44.1199 55.2085Z" fill="white"/>
</svg>
