<svg width="66" height="66" viewBox="0 0 66 66" fill="none" xmlns="http://www.w3.org/2000/svg">
<rect width="66" height="66" rx="15" fill="white"/>
<path fill-rule="evenodd" clip-rule="evenodd" d="M30.0228 13.5601C30.9464 14.4127 32.1543 14.8888 33.4096 14.895H33.5751C34.8359 14.8911 36.0498 14.415 36.9787 13.5601C40.8859 10.0053 46.5513 8.90611 51.4732 11.2079C56.2367 13.435 58.9999 18.2526 58.9999 23.3492C59.0049 23.9368 58.6877 24.4798 58.174 24.7627C57.6604 25.0456 57.0332 25.0228 56.5414 24.7033C49.6639 20.4188 41.7245 18.1579 33.6279 18.178H33.388C25.2674 18.202 17.3181 20.522 10.453 24.8716C9.96474 25.1832 9.34649 25.2052 8.8375 24.929C8.32851 24.6528 8.00862 24.1219 8.00165 23.5416C7.92249 18.3729 10.7024 13.4639 15.5283 11.2079C20.4502 8.90611 26.1156 10.0125 30.0228 13.5601ZM10.2011 30.9062C10.9927 32.193 12.12 33.7515 13.4296 35.476C13.9511 36.1504 14.9092 36.2945 15.6051 35.8031C26.3743 28.2726 40.6708 28.2247 51.49 35.6829C52.1847 36.1625 53.132 36.0147 53.6487 35.3462C54.8012 33.8758 55.8757 32.3456 56.8676 30.7619C57.3047 30.0373 57.1028 29.0966 56.407 28.6165C42.6188 19.0722 24.3668 19.1288 10.6377 28.7584C9.94996 29.2468 9.75889 30.1869 10.2011 30.9062ZM21.1314 44.7792C19.9249 43.3914 18.7208 41.982 17.5647 40.599C17.2733 40.2502 17.1439 39.7933 17.2089 39.343C17.274 38.8926 17.5272 38.4913 17.9053 38.2396C27.3505 31.8787 39.6813 31.8285 49.1778 38.1121C49.5586 38.3631 49.8144 38.7652 49.8809 39.2172C49.9473 39.6693 49.818 40.1283 49.5256 40.4788C48.3695 41.8618 47.1582 43.2736 45.9589 44.6662C45.4506 45.2533 44.5938 45.3865 43.9321 44.9813C37.5575 41.0439 29.5045 41.0849 23.1702 45.0871C22.5077 45.5021 21.6426 45.3714 21.1314 44.7792ZM33.177 45.3805C28.7204 45.5032 26.5138 50.8836 29.5287 54.1738L29.6463 54.3061C30.6368 55.3857 32.033 56 33.496 56C34.959 56 36.3551 55.3857 37.3457 54.3061L37.504 54.1329C40.5477 50.809 38.2379 45.407 33.7358 45.3805H33.6351H33.177Z" fill="url(#paint0_linear)"/>
<defs>
<linearGradient id="paint0_linear" x1="8" y1="56" x2="59" y2="56" gradientUnits="userSpaceOnUse">
<stop stop-color="#F26A35"/>
<stop offset="1" stop-color="#EE3048"/>
</linearGradient>
</defs>
</svg>
