<svg width="90" height="90" viewBox="0 0 90 90" fill="none" xmlns="http://www.w3.org/2000/svg">
<path fill-rule="evenodd" clip-rule="evenodd" d="M90 45C90 69.8528 69.8528 90 45 90C20.1472 90 0 69.8528 0 45C0 20.1472 20.1472 0 45 0C69.8528 0 90 20.1472 90 45ZM1.91489 45C1.91489 68.7952 21.2048 88.0851 45 88.0851C68.7952 88.0851 88.0851 68.7952 88.0851 45C88.0851 21.2048 68.7952 1.91489 45 1.91489C21.2048 1.91489 1.91489 21.2048 1.91489 45Z" fill="#DCDCDC"/>
<path fill-rule="evenodd" clip-rule="evenodd" d="M55.8108 20H33.1892C30.8756 20 29 21.8971 29 24.2373V65.7627C29 68.1029 30.8756 70 33.1892 70H55.8108C58.1244 70 60 68.1029 60 65.7627V24.2373C60 21.8971 58.1244 20 55.8108 20ZM30.6757 24.2373C30.6757 22.8332 31.801 21.6949 33.1892 21.6949H55.8108C57.199 21.6949 58.3243 22.8332 58.3243 24.2373V65.7627C58.3243 67.1668 57.199 68.3051 55.8108 68.3051H33.1892C31.801 68.3051 30.6757 67.1668 30.6757 65.7627V24.2373ZM52.8333 23H36.1667C33.8655 23 32 24.8824 32 27.2045V55.7955C32 58.1176 33.8655 60 36.1667 60H52.8333C55.1345 60 57 58.1176 57 55.7955V27.2045C57 24.8824 55.1345 23 52.8333 23ZM33.6667 27.2045C33.6667 25.8113 34.786 24.6818 36.1667 24.6818H52.8333C54.214 24.6818 55.3333 25.8113 55.3333 27.2045V55.7955C55.3333 57.1887 54.214 58.3182 52.8333 58.3182H36.1667C34.786 58.3182 33.6667 57.1887 33.6667 55.7955V27.2045ZM44.5 68C46.433 68 48 66.433 48 64.5C48 62.567 46.433 61 44.5 61C42.567 61 41 62.567 41 64.5C41 66.433 42.567 68 44.5 68ZM44.5 66.25C43.5335 66.25 42.75 65.4665 42.75 64.5C42.75 63.5335 43.5335 62.75 44.5 62.75C45.4665 62.75 46.25 63.5335 46.25 64.5C46.25 65.4665 45.4665 66.25 44.5 66.25Z" fill="white"/>
</svg>
