<svg width="64" height="64" viewBox="0 0 64 64" fill="none" xmlns="http://www.w3.org/2000/svg">
<path fill-rule="evenodd" clip-rule="evenodd" d="M64 32C64 49.6731 49.6731 64 32 64C14.3269 64 0 49.6731 0 32C0 14.3269 14.3269 0 32 0C49.6731 0 64 14.3269 64 32ZM1.3617 32C1.3617 48.9211 15.0789 62.6383 32 62.6383C48.9211 62.6383 62.6383 48.9211 62.6383 32C62.6383 15.0789 48.9211 1.3617 32 1.3617C15.0789 1.3617 1.3617 15.0789 1.3617 32Z" fill="#DCDCDC"/>
<path fill-rule="evenodd" clip-rule="evenodd" d="M17 47V25.0183H21.8671V17H47V41.6951C47 45.1539 45.4812 47 42.5384 47H17ZM46 18H22.873V39.7177H21.8549V26.0183H18V46H42.5512C44.882 46 46 44.6428 46 41.6951V18Z" fill="#FF5252"/>
<path d="M27.4688 32.9688C27.21 32.9688 27 32.7587 27 32.5C27 28.3647 30.3647 25 34.5 25C36.5034 25 38.3873 25.7805 39.803 27.197C39.9862 27.3803 39.9862 27.677 39.803 27.8598C39.6197 28.0431 39.3234 28.0431 39.1402 27.8598C37.9012 26.62 36.2531 25.9375 34.5 25.9375C30.8812 25.9375 27.9375 28.8812 27.9375 32.5C27.9375 32.7587 27.7275 32.9688 27.4688 32.9688Z" fill="#FF5252"/>
<path d="M39.8892 28.75H37.3125C37.0533 28.75 36.8438 28.54 36.8438 28.2812C36.8438 28.0225 37.0533 27.8125 37.3125 27.8125H39.6562V25.4688C39.6562 25.21 39.8658 25 40.125 25C40.3842 25 40.5938 25.21 40.5938 25.4688V28.0455C40.5938 28.4341 40.2778 28.75 39.8892 28.75Z" fill="#FF5252"/>
<path d="M34.5 40C32.4966 40 30.6131 39.22 29.197 37.803C29.0138 37.6197 29.0138 37.3234 29.197 37.1402C29.3803 36.9569 29.6766 36.9569 29.8598 37.1402C31.0992 38.38 32.7469 39.0625 34.5 39.0625C38.1187 39.0625 41.0625 36.1188 41.0625 32.5C41.0625 32.2413 41.272 32.0312 41.5312 32.0312C41.7905 32.0312 42 32.2413 42 32.5C42 36.6353 38.6353 40 34.5 40Z" fill="#FF5252"/>
<path d="M28.875 40C28.6163 40 28.4062 39.7905 28.4062 39.5312V36.9545C28.4062 36.5659 28.7222 36.25 29.1108 36.25H31.6875C31.9462 36.25 32.1562 36.4595 32.1562 36.7188C32.1562 36.978 31.9462 37.1875 31.6875 37.1875H29.3438V39.5312C29.3438 39.7905 29.1337 40 28.875 40Z" fill="#FF5252"/>
</svg>
