<svg width="162" height="46" viewBox="0 0 162 46" fill="#F27758" xmlns="http://www.w3.org/2000/svg">
<rect x="1" y="1" width="160.286" height="44" rx="22" stroke="white"/>
<path d="M32.2157 22.2188C32.2157 22.2188 23.2597 17.2078 22.7337 16.9134C22.2069 16.619 21.6826 16.7976 21.6826 17.413V28.1103V39.0251C21.6826 39.4857 22.0572 39.6855 22.5149 39.43C22.9718 39.1745 32.2157 34.0018 32.2157 34.0018C32.2157 34.0018 33.4715 33.2995 34.0994 32.9484C35.1099 32.3833 37.1309 31.2532 37.1309 31.2532C37.1309 31.2532 41.3013 28.9192 41.8561 28.6098C42.4101 28.2995 42.3568 27.8742 41.8894 27.6294C41.4212 27.3853 37.1309 24.9683 37.1309 24.9683L32.2157 22.2188Z" fill="url(#paint0_linear)"/>
<path d="M33.8694 28.0745L22.0927 16.803C21.818 16.8674 21.6533 17.075 21.6533 17.4242V28.0745V38.9909C21.6533 39.2873 21.7716 39.4636 21.917 39.5234L33.8694 28.0745Z" fill="url(#paint1_linear)"/>
<mask id="mask0" mask-type="alpha" maskUnits="userSpaceOnUse" x="21" y="28" width="17" height="12">
<path fill-rule="evenodd" clip-rule="evenodd" d="M22.4023 39.4603L29.2092 35.6841C30.8854 34.7462 32.2157 34.0018 32.2157 34.0018L37.1658 31.3093L33.8702 28.0754L21.918 39.5258C22.0512 39.5691 22.286 39.5455 22.4692 39.4542" fill="white"/>
</mask>
<g mask="url(#mask0)">
<path d="M32.1996 22.2168C32.1823 22.2568 23.2298 17.2367 22.7079 16.9805C22.1774 16.6468 21.6533 16.8257 21.6533 17.4242V28.1632C21.6533 28.1592 21.6533 38.6317 21.6533 39.0796C21.6533 39.5555 22.0278 39.7556 22.4443 39.5234C22.942 39.2437 32.1823 34.0615 32.1996 34.0208L37.1211 31.2695C37.0956 31.3078 41.2643 28.9696 41.7791 28.6957C42.3728 28.3487 42.3194 27.9227 41.867 27.7194C41.3842 27.4329 37.0956 25.0114 37.1211 24.9681L32.1996 22.2168Z" fill="url(#paint2_linear)"/>
</g>
<path d="M22.7172 16.9047C22.4905 16.7821 22.2652 16.747 22.083 16.7966L33.8694 28.0845L37.1302 24.9683L32.215 22.2188C32.215 22.2188 27.5823 19.6268 24.7851 18.0616L22.7172 16.9047Z" fill="url(#paint3_linear)"/>
<path fill-rule="evenodd" clip-rule="evenodd" d="M104.11 32.4296L105.082 31.5059C105.175 31.4113 105.044 31.4804 105.044 31.4804C104.387 31.8073 103.672 32.1245 102.708 32.1245C100.778 32.1245 99.0321 30.6113 98.5261 28.0093L100.089 27.8868L104.863 25.9429L104.857 25.9266C104.711 25.4521 104.443 24.5857 103.44 23.9172C102.83 23.5284 102.08 23.344 101.349 23.344C99.2589 23.344 96.6963 24.9003 96.6963 28.0736C96.6963 29.6063 97.3263 31.3652 98.7673 32.3884C99.8047 33.1447 100.822 33.1872 101.47 33.1872C102.08 33.1872 102.766 33.1095 103.44 32.8008C103.589 32.7324 103.737 32.6454 103.887 32.5582C103.961 32.5146 104.036 32.471 104.11 32.4296ZM102.747 25.733C102.747 26.02 102.548 26.1433 102.165 26.2862L98.5109 27.914C98.504 27.7872 98.4947 27.6604 98.4854 27.5345C98.4677 27.2931 98.4502 27.0549 98.4502 26.8266C98.4502 24.6003 99.9558 23.9592 100.758 23.9592C101.84 23.9592 102.747 24.9099 102.747 25.733Z" fill="white"/>
<path d="M95.1196 31.3945C95.1196 32.1877 95.2599 32.3112 95.925 32.3735C96.2717 32.4146 96.6171 32.4328 96.9589 32.4739L96.2105 32.9235H92.6439C93.1117 32.3112 93.1921 32.25 93.1921 31.8423V31.3867L93.1843 19.2472H91.6094L93.1255 18.5103H96.0198C95.3925 18.8769 95.2047 19.1002 95.1244 19.8147L95.1196 31.3945Z" fill="white"/>
<path fill-rule="evenodd" clip-rule="evenodd" d="M89.5866 24.3457C90.0506 24.7311 91.0188 25.549 91.0188 27.1C91.0188 28.6118 90.1751 29.3245 89.3243 29.999L89.288 30.0358C89.0358 30.2914 88.7579 30.573 88.7579 30.9977C88.7579 31.4412 89.0519 31.6854 89.2706 31.867L89.283 31.8773L90.0129 32.4466C90.9002 33.2034 91.7091 33.8973 91.7091 35.3068C91.7091 37.2269 89.8698 39.1634 86.3941 39.1634C83.4662 39.1634 82.0508 37.7544 82.0508 36.2439C82.0508 35.5089 82.413 34.4677 83.6081 33.7545C84.8441 32.991 86.5127 32.8802 87.4299 32.8193L87.4664 32.8168L87.4242 32.7619C87.1514 32.4077 86.8587 32.0276 86.8587 31.4261C86.8587 31.1165 86.9411 30.9187 87.0297 30.7063C87.0401 30.6813 87.0506 30.6562 87.0611 30.6305L87.0469 30.6319H87.0469C86.8306 30.6526 86.6131 30.6735 86.415 30.6735C84.2721 30.6735 83.0609 29.0583 83.0609 27.4666C83.0609 26.5278 83.4848 25.486 84.3553 24.7311C85.5073 23.7728 86.8809 23.6077 87.9724 23.6077H92.136L90.8416 24.3457H89.5866ZM88.1651 33.3851C87.9979 33.3629 87.8977 33.3629 87.6961 33.3629C87.5114 33.3629 86.411 33.4036 85.5588 33.6955C85.1079 33.8636 83.8047 34.3606 83.8047 35.8369C83.8047 37.31 85.2117 38.3724 87.3883 38.3724C89.3439 38.3724 90.3821 37.416 90.3821 36.1282C90.3821 35.0683 89.7103 34.5091 88.1651 33.3851ZM89.242 27.9662C89.242 28.3347 89.2015 28.9836 88.7364 29.4534C88.4181 29.7754 87.8756 30.0233 87.3712 30.0233C85.6429 30.0233 84.8571 27.7629 84.8571 26.4C84.8571 25.8711 84.9591 25.3211 85.2995 24.8971C85.6202 24.4876 86.1854 24.2229 86.7071 24.2229C88.3793 24.2229 89.242 26.5025 89.242 27.9662Z" fill="white"/>
<path fill-rule="evenodd" clip-rule="evenodd" d="M72.0527 28.339C72.0527 30.6428 73.7748 33.1872 76.9934 33.1872C80.2953 33.1872 82.138 30.6202 82.138 28.194C82.138 25.7099 80.2737 23.344 77.297 23.344C74.2176 23.344 72.0527 25.6472 72.0527 28.339ZM80.1209 29.2372C80.1209 30.0399 80.0017 30.8633 79.5104 31.5231C79.0426 32.1816 78.2316 32.572 77.4368 32.572C74.9743 32.572 73.9821 29.2127 73.9821 27.1761C73.9821 26.2866 74.1236 25.3801 74.9171 24.6586C75.4036 24.2249 76.0785 23.9592 76.7487 23.9592C79.2684 23.9592 80.1209 27.4216 80.1209 29.2372Z" fill="white"/>
<path fill-rule="evenodd" clip-rule="evenodd" d="M71.3516 28.2889C71.3957 25.9855 69.725 23.4087 66.5051 23.347C63.2017 23.2837 61.3119 25.8148 61.2654 28.2406C61.2178 30.7243 63.0354 33.1254 66.011 33.1825C69.0899 33.2415 71.3 30.9802 71.3516 28.2889ZM63.302 27.2363C63.3174 26.4337 63.4549 25.6128 63.9553 24.9625C64.4371 24.3131 65.2546 23.9383 66.0478 23.9535C68.5069 24.0006 69.4393 27.3783 69.4003 29.4146C69.3832 30.3039 69.2249 31.2076 68.4161 31.9136C67.92 32.3379 67.247 32.5908 66.5742 32.5779C64.0561 32.5297 63.2673 29.0515 63.302 27.2363Z" fill="white"/>
<path d="M59.9308 32.579L57.2047 33.2087C56.1001 33.3843 55.1082 33.5387 54.0579 33.5387C48.7996 33.5387 46.7959 29.635 46.7959 26.5797C46.7959 22.8486 49.6348 19.3892 54.4966 19.3892C55.5252 19.3892 56.5147 19.5417 57.4162 19.7897C58.845 20.1945 59.5132 20.6934 59.9308 20.9858L58.3472 22.5028L57.6795 22.6535L58.1556 21.8883C57.5108 21.2532 56.3255 20.0808 54.076 20.0808C51.0684 20.0808 48.7996 22.3867 48.7996 25.7531C48.7996 29.3688 51.3901 32.7699 55.5451 32.7699C56.766 32.7699 57.3945 32.5225 57.9652 32.2916V29.1919L55.0865 29.3481L56.6123 28.5215H60.6522L60.158 29.0011C60.0249 29.1153 60.0068 29.1542 59.9694 29.3074C59.9495 29.4824 59.9308 30.0392 59.9308 30.2349V32.579Z" fill="white"/>
<path fill-rule="evenodd" clip-rule="evenodd" d="M110.965 36.7905V31.5999C111.734 32.6876 112.934 33.3814 114.274 33.3814C116.819 33.3814 118.533 31.4018 118.533 28.3527C118.533 25.2831 116.819 23.344 114.274 23.344C112.855 23.344 111.633 24.1146 110.965 25.0869V23.5825H109.938V36.7905H110.965ZM114.139 24.3107C116.275 24.3107 117.48 26.0939 117.48 28.4319C117.48 30.7735 116.275 32.572 114.139 32.572C112.811 32.572 111.542 31.479 110.991 30.5575V26.285C111.542 25.3653 112.811 24.3107 114.139 24.3107Z" fill="white"/>
<path d="M119.936 19.9165H120.988V33.1872H119.936V19.9165Z" fill="white"/>
<path d="M132.43 35.8766C132.65 35.975 133.024 36.0354 133.262 36.0354C133.889 36.0354 134.326 35.7775 134.719 34.8666L135.468 33.1626L131.425 23.5198H132.57L136.038 31.876L139.472 23.5198H140.633L135.702 35.1861C135.19 36.3882 134.385 36.9662 133.28 36.9662C132.948 36.9662 132.51 36.907 132.254 36.8279L132.43 35.8766Z" fill="white"/>
<path fill-rule="evenodd" clip-rule="evenodd" d="M129.374 32.3014C129.412 32.5467 129.464 32.8407 129.533 33.1741H130.722C130.63 32.8637 130.56 32.5431 130.517 32.2218C130.474 31.9012 130.458 31.5721 130.458 31.2314V26.4885C130.458 25.4731 130.114 24.6964 129.428 24.159C128.742 23.6161 127.831 23.344 126.706 23.344C125.577 23.344 124.66 23.6203 123.96 24.1699C123.256 24.7201 122.926 25.3571 122.964 26.0834L122.985 26.1351H124.042C124.042 25.5964 124.282 25.1494 124.758 24.7887C125.239 24.4353 125.87 24.2537 126.649 24.2537C127.5 24.2537 128.157 24.4523 128.625 24.8452C129.091 25.2375 129.324 25.7786 129.324 26.4666V27.6612H126.917C125.627 27.6612 124.584 27.9284 123.778 28.4658C122.971 29.0008 122.566 29.7004 122.566 30.5621C122.566 31.4251 122.846 32.1071 123.401 32.6105C123.958 33.1145 124.738 33.3629 125.744 33.3629C126.579 33.3629 127.188 33.1941 127.829 32.8498C128.469 32.5079 128.971 32.0737 129.324 31.552C129.324 31.8065 129.342 32.0567 129.374 32.3014ZM128.017 31.895C127.374 32.2863 126.744 32.4841 125.868 32.4841C125.196 32.4841 124.67 32.3168 124.284 31.9793C123.9 31.6454 123.706 31.2047 123.706 30.6535C123.706 30.0693 124.012 29.5669 124.614 29.1518C125.215 28.7355 125.979 28.5292 126.902 28.5292H129.319V30.3849C129.091 30.9989 128.656 31.5062 128.017 31.895Z" fill="white"/>
<path d="M47.0586 12.999H47.6104C48.0824 12.1364 48.4779 11.168 48.7969 10.0938C49.1159 9.01953 49.321 7.94206 49.4121 6.86133H53.0986V12.999H54.0215V15.9678H52.8984V14H48.1816V15.9678H47.0586V12.999ZM50.3887 7.87207C50.3171 8.611 50.1348 9.46875 49.8418 10.4453C49.5488 11.4186 49.2152 12.2699 48.8408 12.999H51.9316V7.87207H50.3887ZM59.8467 11.29C59.8467 12.1722 59.6204 12.8607 59.168 13.3555C58.7155 13.8503 58.0856 14.0977 57.2783 14.0977C56.7738 14.0977 56.3278 13.9837 55.9404 13.7559C55.5531 13.528 55.2552 13.2008 55.0469 12.7744C54.8385 12.348 54.7344 11.8532 54.7344 11.29C54.7344 10.4144 54.959 9.73079 55.4082 9.23926C55.8574 8.74772 56.4906 8.50195 57.3076 8.50195C58.0889 8.50195 58.7074 8.75423 59.1631 9.25879C59.6188 9.76009 59.8467 10.4372 59.8467 11.29ZM55.916 11.29C55.916 12.5368 56.3766 13.1602 57.2979 13.1602C58.2093 13.1602 58.665 12.5368 58.665 11.29C58.665 10.0563 58.2061 9.43945 57.2881 9.43945C56.8063 9.43945 56.4564 9.59896 56.2383 9.91797C56.0234 10.237 55.916 10.6943 55.916 11.29ZM63.3477 14.0977C62.5306 14.0977 61.9089 13.86 61.4824 13.3848C61.0592 12.9062 60.8477 12.221 60.8477 11.3291C60.8477 10.4209 61.069 9.72266 61.5117 9.23438C61.9577 8.74609 62.6006 8.50195 63.4404 8.50195C64.0101 8.50195 64.5228 8.60775 64.9785 8.81934L64.6318 9.74219C64.1468 9.55339 63.7464 9.45898 63.4307 9.45898C62.4964 9.45898 62.0293 10.0791 62.0293 11.3193C62.0293 11.9248 62.1449 12.3805 62.376 12.6865C62.6104 12.9893 62.9521 13.1406 63.4014 13.1406C63.9124 13.1406 64.3958 13.0137 64.8516 12.7598V13.7607C64.6465 13.8812 64.4268 13.9674 64.1924 14.0195C63.9613 14.0716 63.6797 14.0977 63.3477 14.0977ZM70.1787 8.59961V9.49805H68.4209V14H67.2686V9.49805H65.5107V8.59961H70.1787ZM70.3984 8.59961H71.6484L72.7471 11.6611C72.9131 12.0973 73.0238 12.5075 73.0791 12.8916H73.1182C73.1475 12.7126 73.2012 12.4961 73.2793 12.2422C73.3574 11.985 73.7708 10.7708 74.5195 8.59961H75.7598L73.4502 14.7178C73.0303 15.8408 72.3304 16.4023 71.3506 16.4023C71.0967 16.4023 70.8493 16.3747 70.6084 16.3193V15.4111C70.7809 15.4502 70.9779 15.4697 71.1992 15.4697C71.7526 15.4697 72.1416 15.1491 72.3662 14.5078L72.5664 14L70.3984 8.59961ZM81.3018 8.59961V14H80.1494V9.50781H77.7275V14H76.5801V8.59961H81.3018ZM84.0947 8.59961V10.7676H86.6387V8.59961H87.7861V14H86.6387V11.6709H84.0947V14H82.9473V8.59961H84.0947ZM94.2217 11.29C94.2217 12.1722 93.9954 12.8607 93.543 13.3555C93.0905 13.8503 92.4606 14.0977 91.6533 14.0977C91.1488 14.0977 90.7028 13.9837 90.3154 13.7559C89.9281 13.528 89.6302 13.2008 89.4219 12.7744C89.2135 12.348 89.1094 11.8532 89.1094 11.29C89.1094 10.4144 89.334 9.73079 89.7832 9.23926C90.2324 8.74772 90.8656 8.50195 91.6826 8.50195C92.4639 8.50195 93.0824 8.75423 93.5381 9.25879C93.9938 9.76009 94.2217 10.4372 94.2217 11.29ZM90.291 11.29C90.291 12.5368 90.7516 13.1602 91.6729 13.1602C92.5843 13.1602 93.04 12.5368 93.04 11.29C93.04 10.0563 92.5811 9.43945 91.6631 9.43945C91.1813 9.43945 90.8314 9.59896 90.6133 9.91797C90.3984 10.237 90.291 10.6943 90.291 11.29ZM102.83 9.98145C102.83 10.6195 102.457 11.0052 101.712 11.1387V11.1777C102.129 11.2266 102.448 11.3584 102.669 11.5732C102.89 11.7881 103.001 12.0664 103.001 12.4082C103.001 12.9193 102.806 13.3132 102.415 13.5898C102.028 13.8633 101.463 14 100.721 14H98.1426V8.59961H100.711C102.124 8.59961 102.83 9.06022 102.83 9.98145ZM101.824 12.3398C101.824 12.0794 101.723 11.8955 101.521 11.7881C101.32 11.6774 101.017 11.6221 100.613 11.6221H99.29V13.1504H100.643C101.43 13.1504 101.824 12.8802 101.824 12.3398ZM101.683 10.0791C101.683 9.86426 101.598 9.70964 101.429 9.61523C101.263 9.51758 101.014 9.46875 100.682 9.46875H99.29V10.7676H100.511C100.895 10.7676 101.186 10.7188 101.385 10.6211C101.583 10.5202 101.683 10.3395 101.683 10.0791Z" fill="white"/>
<defs>
<linearGradient id="paint0_linear" x1="28.8992" y1="23.3183" x2="37.8303" y2="34.1197" gradientUnits="userSpaceOnUse">
<stop stop-color="#FF177B"/>
<stop offset="1" stop-color="#FFEC73"/>
</linearGradient>
<linearGradient id="paint1_linear" x1="13.5548" y1="-7.49907" x2="-12.3142" y2="8.53669" gradientUnits="userSpaceOnUse">
<stop stop-color="#064AA2"/>
<stop offset="1" stop-color="#63FFD4"/>
</linearGradient>
<linearGradient id="paint2_linear" x1="33.8989" y1="17.7427" x2="14.1672" y2="27.4263" gradientUnits="userSpaceOnUse">
<stop stop-color="#FF4521"/>
<stop offset="1" stop-color="#8A33DB"/>
</linearGradient>
<linearGradient id="paint3_linear" x1="5.21595" y1="10.915" x2="10.8616" y2="37.135" gradientUnits="userSpaceOnUse">
<stop stop-color="#00A3B5"/>
<stop offset="1" stop-color="#D6FFA1"/>
</linearGradient>
</defs>
</svg>
