<svg width="64" height="64" viewBox="0 0 64 64" fill="none" xmlns="http://www.w3.org/2000/svg">
<path fill-rule="evenodd" clip-rule="evenodd" d="M64 32C64 49.6731 49.6731 64 32 64C14.3269 64 0 49.6731 0 32C0 14.3269 14.3269 0 32 0C49.6731 0 64 14.3269 64 32ZM1.3617 32C1.3617 48.9211 15.0789 62.6383 32 62.6383C48.9211 62.6383 62.6383 48.9211 62.6383 32C62.6383 15.0789 48.9211 1.3617 32 1.3617C15.0789 1.3617 1.3617 15.0789 1.3617 32Z" fill="#DCDCDC"/>
<path fill-rule="evenodd" clip-rule="evenodd" d="M32 16.3403C30.1557 16.3403 29.8658 18.2467 29.8658 18.2467H34.1205C34.1205 18.2467 33.8443 16.3403 32 16.3403ZM41.5309 26.3032L41.5563 26.3935V36.2766L45.6417 41.542V44.1858H17.7021V41.5342L21.9619 36.2689V26.4022L21.9828 26.3198C23.3213 21.046 26.5912 18.3367 31.6578 18.3367C36.7185 18.3367 40.0518 21.0379 41.5309 26.3032ZM19.0639 42.0161V42.8241H44.28V42.0083L40.1946 36.7429V26.582C38.8654 21.9481 36.0612 19.6984 31.6578 19.6984C27.2579 19.6984 24.5239 21.9425 23.3236 26.5732V36.7507L19.0639 42.0161ZM32.0829 48.2941C28.7976 48.2941 27.9149 44.8899 27.9149 44.8899H36.0851C36.0851 44.8899 35.3682 48.2941 32.0829 48.2941Z" fill="#FF5252"/>
</svg>
