<svg width="90" height="90" viewBox="0 0 90 90" fill="none" xmlns="http://www.w3.org/2000/svg">
<path fill-rule="evenodd" clip-rule="evenodd" d="M90 45C90 69.8528 69.8528 90 45 90C20.1472 90 0 69.8528 0 45C0 20.1472 20.1472 0 45 0C69.8528 0 90 20.1472 90 45ZM1.91489 45C1.91489 68.7952 21.2048 88.0851 45 88.0851C68.7952 88.0851 88.0851 68.7952 88.0851 45C88.0851 21.2048 68.7952 1.91489 45 1.91489C21.2048 1.91489 1.91489 21.2048 1.91489 45Z" fill="#DCDCDC"/>
<path fill-rule="evenodd" clip-rule="evenodd" d="M28 45.0693V46.7922H32.5107V52H28V54H32.5107V66H34.1991V54H52V52H34.1991V46.7922H51.5446C58.4073 46.7922 62 43.3401 62 36.6956C62 30.1048 58.4858 26.1434 51.6804 25.0112L51.5446 25H32.5107V45.0693H28ZM34.1991 26.7229H51.4755C57.4398 27.7357 60.3116 30.9941 60.3116 36.6956C60.3116 42.3646 57.4968 45.0693 51.5446 45.0693H34.1991V26.7229Z" fill="white"/>
</svg>
