<svg width="64" height="64" viewBox="0 0 64 64" fill="none" xmlns="http://www.w3.org/2000/svg">
<path fill-rule="evenodd" clip-rule="evenodd" d="M64 32C64 49.6731 49.6731 64 32 64C14.3269 64 0 49.6731 0 32C0 14.3269 14.3269 0 32 0C49.6731 0 64 14.3269 64 32ZM1.3617 32C1.3617 48.9211 15.0789 62.6383 32 62.6383C48.9211 62.6383 62.6383 48.9211 62.6383 32C62.6383 15.0789 48.9211 1.3617 32 1.3617C15.0789 1.3617 1.3617 15.0789 1.3617 32Z" fill="#DCDCDC"/>
<mask id="mask0" mask-type="alpha" maskUnits="userSpaceOnUse" x="14" y="14" width="36" height="36">
<rect x="14" y="14" width="36" height="36" fill="white"/>
</mask>
<g mask="url(#mask0)">
<path fill-rule="evenodd" clip-rule="evenodd" d="M40.7066 17.2508C41.3207 17.2565 41.9268 17.5073 42.3657 17.938C43.6015 19.1663 44.8337 20.3985 46.0621 21.6344C46.4918 22.0724 46.7433 22.6698 46.7492 23.2933C46.7712 30.3219 46.7712 37.3506 46.7492 44.3791C46.7376 45.6035 45.6863 46.7341 44.382 46.7462C36.1284 46.7721 27.8746 46.7721 19.621 46.7462C18.3932 46.7348 17.2661 45.6834 17.2538 44.3791C17.2279 36.1254 17.2279 27.8716 17.2538 19.6179C17.2654 18.3845 18.3366 17.2627 19.6209 17.2508C26.6494 17.2289 33.6781 17.2289 40.7066 17.2508ZM19.6367 18.4777C19.0353 18.4795 18.4866 19.0006 18.4807 19.6256C18.4548 27.8766 18.403 36.128 18.4808 44.3787C18.4899 44.9713 19.0005 45.5135 19.6286 45.5193C27.8795 45.5452 36.131 45.5953 44.3817 45.5192C44.9765 45.51 45.5164 44.9943 45.5223 44.3714C45.5443 37.3456 45.5884 30.3194 45.5222 23.2938C45.5177 22.9977 45.396 22.7074 45.1891 22.4965C43.9626 21.2626 42.7399 20.0247 41.4983 18.8059C41.2861 18.6002 40.9945 18.4805 40.699 18.4777C33.6783 18.4558 26.6574 18.4777 19.6367 18.4777Z" fill="#FF5252"/>
<path fill-rule="evenodd" clip-rule="evenodd" d="M39.1257 17.2536C39.4329 17.2965 39.668 17.5499 39.6825 17.8645C39.6825 19.6358 39.6884 21.4071 39.6825 23.1784C39.6711 24.414 38.6 25.5328 37.3159 25.545C33.7733 25.5564 30.2306 25.5564 26.6879 25.545C25.4622 25.5334 24.3258 24.4838 24.3213 23.1641V17.8645C24.3365 17.5359 24.6037 17.2663 24.9348 17.251H39.0691C39.0879 17.2518 39.1068 17.2527 39.1257 17.2536ZM25.5482 18.4779C25.5482 20.0447 25.534 21.6115 25.5483 23.1782C25.5579 23.7737 26.0691 24.3121 26.6957 24.3181C30.2357 24.3294 33.7759 24.3516 37.3157 24.318C37.9108 24.3086 38.4535 23.7934 38.4556 23.1621V18.4779C34.1532 18.4779 29.8507 18.4779 25.5482 18.4779Z" fill="#FF5252"/>
<path fill-rule="evenodd" clip-rule="evenodd" d="M40.2598 30.2071C41.4898 30.2188 42.622 31.2723 42.6264 32.5879V46.1326C42.5851 46.3931 42.4469 46.6367 42.2025 46.716C42.1417 46.7358 42.0761 46.7361 42.0129 46.7461H21.9894C21.8623 46.726 21.7317 46.7037 21.6288 46.6289C21.474 46.5164 21.4069 46.3283 21.3759 46.1326C21.3759 41.613 21.3606 37.0932 21.376 32.5736C21.3876 31.345 22.4418 30.2195 23.7426 30.2071C29.2483 30.1894 34.7541 30.1894 40.2598 30.2071ZM23.7589 31.434C23.1598 31.4359 22.6089 31.947 22.6029 32.5815V45.5191H41.3995C41.3995 41.204 41.4401 36.8888 41.3994 32.5739C41.3899 31.9766 40.8787 31.4399 40.252 31.434C34.7543 31.4163 29.2566 31.434 23.7589 31.434Z" fill="#FF5252"/>
</g>
</svg>
