<svg width="90" height="90" viewBox="0 0 90 90" fill="none" xmlns="http://www.w3.org/2000/svg">
<path fill-rule="evenodd" clip-rule="evenodd" d="M43.3638 24V24.5206C43.6389 24.2018 44.0459 24 44.5 24C45.3284 24 46 24.6716 46 25.5C46 26.3284 45.3284 27 44.5 27C43.7648 27 43.1532 26.4711 43.0248 25.7731H39.584C38.2801 26.9998 37.6384 28.5074 37.6384 30.348C37.6384 35.1389 41.0799 46.434 43.7787 47.7629C44.8977 48.314 46.377 48.7027 47.9582 48.9248C48.3899 48.0041 49.3476 47.3639 50.4597 47.3639C51.6269 47.3639 52.6241 48.0693 53.0215 49.064C54.8073 48.9026 56.3516 48.5005 57.2242 47.8505C59.3793 46.245 62.9644 34.8274 63.1537 30.312C63.2861 27.152 62.6524 25.7731 61.6696 25.7731H57.9752C57.8468 26.4711 57.2352 27 56.5 27C55.6716 27 55 26.3284 55 25.5C55 24.8888 55.3656 24.363 55.89 24.1292V24H56.5H61.6696C64.0742 24 65.152 26.3455 64.9828 30.3839C64.7733 35.382 61.051 47.2365 58.3403 49.2559C57.1773 50.1223 55.2483 50.6416 53.0758 50.8339C52.8472 51.5266 52.3335 52.0959 51.6683 52.4122L51.6664 61.2015C51.2833 66.2895 48.6948 69 44.0912 69C39.4284 69 37.2559 66.2021 37.7942 61.0913V55.8831C37.379 53.6742 35.9276 52.6342 33.1609 52.6342C30.375 52.6342 28.6721 53.7112 27.8587 55.9524V58.0664C29.7805 58.4039 31.2379 60.0329 31.2379 61.9916C31.2379 64.1948 29.3938 65.9809 27.1189 65.9809C24.8441 65.9809 23 64.1948 23 61.9916C23 60.1541 24.2826 58.6067 26.0281 58.1436V55.6632L26.0742 55.5278C27.1239 52.4475 29.5544 50.8612 33.1609 50.8612C36.8108 50.8612 39.0572 52.5041 39.6119 55.6567L39.6249 55.8057V61.137L39.6199 61.2295C39.1694 65.3909 40.5857 67.2269 44.0912 67.2269C47.6702 67.2269 49.5233 65.2865 49.8382 61.137V52.6146C48.8457 52.3922 48.0592 51.6486 47.8026 50.6975C45.9824 50.4491 44.2705 49.9941 42.949 49.3434C39.4149 47.6031 35.8078 35.7646 35.8078 30.348C35.8078 27.8903 36.7524 25.8281 38.617 24.2238L38.877 24H43.3638ZM27.1189 64.2079C25.8552 64.2079 24.8306 63.2156 24.8306 61.9916C24.8306 60.7675 25.8552 59.7752 27.1189 59.7752C28.3827 59.7752 29.4073 60.7675 29.4073 61.9916C29.4073 63.2156 28.3827 64.2079 27.1189 64.2079Z" fill="white"/>
<path fill-rule="evenodd" clip-rule="evenodd" d="M90 45C90 69.8528 69.8528 90 45 90C20.1472 90 0 69.8528 0 45C0 20.1472 20.1472 0 45 0C69.8528 0 90 20.1472 90 45ZM1.91489 45C1.91489 68.7952 21.2048 88.0851 45 88.0851C68.7952 88.0851 88.0851 68.7952 88.0851 45C88.0851 21.2048 68.7952 1.91489 45 1.91489C21.2048 1.91489 1.91489 21.2048 1.91489 45Z" fill="#DCDCDC"/>
</svg>
