<svg width="360" height="841" viewBox="0 0 360 841" fill="none" xmlns="http://www.w3.org/2000/svg">
<g opacity="0.1">
<path fill-rule="evenodd" clip-rule="evenodd" d="M392.51 44.4234C376.266 38.4293 368.285 12.9932 336.138 4.53216C303.991 -3.92884 267.045 -2.4762 247.405 25.7466C227.765 53.9694 244.514 107.51 223.553 115.603C202.593 123.696 182.974 172.285 214.57 175.187C246.166 178.09 313.14 151.667 324.639 149.925C336.138 148.184 368.832 162.933 388.45 166.861C408.068 170.788 430.99 192.084 430.99 162.737C430.99 133.391 432.034 117.861 412.272 99.1967C392.51 80.532 408.754 50.4176 392.51 44.4234Z" fill="#FF8A65" style="mix-blend-mode:multiply"/>
</g>
<g opacity="0.1" filter="url(#filter0_f)">
<path fill-rule="evenodd" clip-rule="evenodd" d="M388.466 149.566C374.313 154.752 367.36 176.759 339.352 184.079C311.344 191.399 279.155 190.142 262.044 165.725C244.933 141.307 259.525 94.986 241.263 87.984C223.001 80.9819 205.909 38.9448 233.437 36.4333C260.964 33.9218 319.315 56.7822 329.333 58.2892C339.352 59.7961 367.836 47.0352 384.928 43.6375C402.021 40.2399 421.992 21.8152 421.992 47.2047C421.992 72.5941 422.901 86.0301 405.683 102.178C388.466 118.326 402.618 144.38 388.466 149.566Z" fill="#FF5252" style="mix-blend-mode:multiply"/>
</g>
<g opacity="0.1">
<path fill-rule="evenodd" clip-rule="evenodd" d="M453.385 958.899C449.247 942.068 465.769 921.263 454.773 889.851C443.776 858.44 421.918 828.568 387.652 827.99C353.386 827.412 318.581 871.164 300.183 858.269C281.785 845.374 230.729 856.165 246.003 884.021C261.276 911.877 320.526 952.765 328.394 961.343C336.261 969.922 342.374 1005.29 350.105 1023.77C357.836 1042.25 353.084 1073.16 377.295 1056.8C401.505 1040.44 414.901 1032.65 419.249 1005.84C423.596 979.025 457.524 975.729 453.385 958.899Z" fill="#FF8A65" style="mix-blend-mode:multiply"/>
</g>
<g opacity="0.1" filter="url(#filter1_f)">
<path fill-rule="evenodd" clip-rule="evenodd" d="M352.69 1022.62C340.47 1013.78 318.306 1020.35 296.566 1001.2C274.825 982.048 257.869 954.612 268.578 926.703C279.287 898.794 325.914 884.921 321.517 865.828C317.121 846.734 342.472 808.955 359.951 830.405C377.43 851.855 391.074 913.136 395.425 922.301C399.776 931.466 426.301 947.96 438.681 960.247C451.06 972.535 477.528 978.781 456.444 993.027C435.359 1007.27 424.71 1015.57 401.672 1010.33C378.634 1005.09 364.911 1031.46 352.69 1022.62Z" fill="#FF5252"/>
</g>
<g opacity="0.1" filter="url(#filter2_f)">
<path fill-rule="evenodd" clip-rule="evenodd" d="M22.163 334.433C6.10008 340.88 -16.768 327.387 -46.2918 342.666C-75.8157 357.945 -102.305 383.784 -98.1075 417.854C-93.9102 451.924 -45.8127 480.358 -56.0004 500.402C-66.1881 520.446 -48.4139 569.587 -23.0007 550.56C2.41245 531.534 34.5897 467.072 41.9754 458.074C49.3611 449.077 83.4785 438.09 100.673 427.85C117.867 417.61 149.082 418.021 129.541 396.283C110.001 374.544 100.436 362.341 73.321 361.761C46.2066 361.18 38.226 327.985 22.163 334.433Z" fill="#FF5252" style="mix-blend-mode:multiply"/>
</g>
<path opacity="0.1" fill-rule="evenodd" clip-rule="evenodd" d="M99.1716 425.447C92.1304 438.799 101.713 459.868 85.8062 484.099C69.899 508.329 45.1356 528.966 16.0534 522.228C-13.0287 515.49 -33.2324 471.17 -51.4967 478.189C-69.7609 485.207 -110.639 465.318 -91.8656 444.995C-73.0922 424.673 -14.407 402.61 -5.95184 397.019C2.50336 391.427 15.1177 362.821 25.5423 348.832C35.9669 334.842 38.4586 307.719 55.4763 326.65C72.4941 345.582 82.1756 354.991 80.204 378.572C78.2324 402.152 106.213 412.094 99.1716 425.447Z" fill="#FF8A65"/>
<defs>
<filter id="filter0_f" x="205.409" y="20.4086" width="230.183" height="181.183" filterUnits="userSpaceOnUse" color-interpolation-filters="sRGB">
<feFlood flood-opacity="0" result="BackgroundImageFix"/>
<feBlend mode="normal" in="SourceGraphic" in2="BackgroundImageFix" result="shape"/>
<feGaussianBlur stdDeviation="6.7957" result="effect1_foregroundBlur"/>
</filter>
<filter id="filter1_f" x="212.301" y="803.556" width="268.718" height="281.932" filterUnits="userSpaceOnUse" color-interpolation-filters="sRGB">
<feFlood flood-opacity="0" result="BackgroundImageFix"/>
<feBlend mode="normal" in="SourceGraphic" in2="BackgroundImageFix" result="shape"/>
<feGaussianBlur stdDeviation="6.7957" result="effect1_foregroundBlur"/>
</filter>
<filter id="filter2_f" x="-165.713" y="262.3" width="319.035" height="314.891" filterUnits="userSpaceOnUse" color-interpolation-filters="sRGB">
<feFlood flood-opacity="0" result="BackgroundImageFix"/>
<feBlend mode="normal" in="SourceGraphic" in2="BackgroundImageFix" result="shape"/>
<feGaussianBlur stdDeviation="6.7957" result="effect1_foregroundBlur"/>
</filter>
</defs>
</svg>
