<svg width="129" height="37" viewBox="0 0 129 37" fill="none" xmlns="http://www.w3.org/2000/svg">
<rect x="1" y="0.584473" width="127" height="35" rx="17.5" stroke="white"/>
<path d="M35.9419 16.4244C35.9187 13.8493 38.0536 12.5965 38.1513 12.5381C36.9421 10.778 35.068 10.5375 34.4095 10.5183C32.8355 10.3529 31.3087 11.4587 30.5068 11.4587C29.689 11.4587 28.4543 10.5343 27.1235 10.5615C25.4111 10.5878 23.8091 11.5778 22.9304 13.115C21.1172 16.2494 22.4695 20.8555 24.2068 23.3891C25.0758 24.6307 26.0913 26.0153 27.4204 25.9666C28.7208 25.9138 29.2065 25.1388 30.7757 25.1388C32.3305 25.1388 32.7866 25.9666 34.1422 25.9346C35.5378 25.9138 36.4164 24.689 37.255 23.4362C38.2593 22.0156 38.6626 20.6134 38.6786 20.5415C38.6466 20.5311 35.9691 19.5108 35.9419 16.4244" fill="white"/>
<path d="M33.3813 8.85174C34.0807 7.97846 34.5592 6.79037 34.4264 5.58472C33.4141 5.62946 32.1482 6.28382 31.4192 7.13793C30.7742 7.89057 30.1981 9.12419 30.3469 10.2843C31.484 10.369 32.6515 9.71144 33.3813 8.85174" fill="white"/>
<path fill-rule="evenodd" clip-rule="evenodd" d="M52.1216 26.4285H53.9104L50.5202 15.7957H48.4359L45.0605 26.4285H46.8022L47.7356 23.3053H51.1417L52.1216 26.4285ZM49.9601 19.2193L50.8463 21.9949H48.031L48.9022 19.2193C49.1298 18.3356 49.2961 17.6677 49.4 17.2154H49.4315C49.6899 18.2669 49.8664 18.9348 49.9601 19.2193Z" fill="white"/>
<path fill-rule="evenodd" clip-rule="evenodd" d="M61.5259 25.5919C62.2246 24.8353 62.5735 23.8046 62.5735 22.5007C62.5735 21.3334 62.275 20.3922 61.6803 19.6755C61.0848 18.9604 60.3404 18.6033 59.4487 18.6033C58.3081 18.6033 57.4582 19.0611 56.8981 19.9775H56.8666L56.7729 18.7615H55.2959C55.3369 19.6228 55.3581 20.4625 55.3581 21.2814V29.5365H57.0375V25.5136C57.4747 26.2399 58.1947 26.6018 59.1958 26.6018C60.123 26.6018 60.9004 26.2655 61.5259 25.5919ZM60.3648 20.7174C60.6972 21.2015 60.8626 21.8168 60.8626 22.563C60.8626 23.3732 60.6862 24.0251 60.3333 24.5197C59.9812 25.0127 59.4889 25.2612 58.8563 25.2612C58.3175 25.2612 57.8796 25.0686 57.5424 24.6851C57.2053 24.3 57.0367 23.8294 57.0367 23.2733V21.9933C57.0367 21.8575 57.0627 21.6857 57.1147 21.4756C57.2179 21.0226 57.4385 20.6574 57.7756 20.3786C58.112 20.1006 58.4885 19.9599 58.9028 19.9599C59.5141 19.9599 60.0017 20.2132 60.3648 20.7174Z" fill="white"/>
<path fill-rule="evenodd" clip-rule="evenodd" d="M70.22 25.5919C70.9187 24.8353 71.2677 23.8046 71.2677 22.5007C71.2677 21.3334 70.9683 20.3922 70.3744 19.6755C69.7781 18.9604 69.033 18.6033 68.1421 18.6033C67.0007 18.6033 66.1507 19.0611 65.5915 19.9775H65.5599L65.4662 18.7615H63.9893C64.0302 19.6228 64.0515 20.4625 64.0515 21.2814V29.5365H65.7309V25.5136C66.1688 26.2399 66.8888 26.6018 67.8892 26.6018C68.8171 26.6018 69.5938 26.2655 70.22 25.5919ZM69.0574 20.7174C69.3898 21.2015 69.556 21.8168 69.556 22.563C69.556 23.3732 69.3795 24.0251 69.0266 24.5197C68.6753 25.0127 68.183 25.2612 67.5497 25.2612C67.0093 25.2612 66.5714 25.0678 66.2342 24.6851C65.8987 24.3 65.7293 23.8294 65.7293 23.2733V21.9933C65.7293 21.8575 65.7569 21.6857 65.8081 21.4756C65.9113 21.0226 66.1318 20.6574 66.4682 20.3786C66.8061 20.1006 67.1826 19.9599 67.597 19.9599C68.2082 19.9599 68.695 20.2132 69.0574 20.7174Z" fill="white"/>
<path d="M80.9881 23.4466C80.9881 24.351 80.6769 25.0869 80.0562 25.655C79.3741 26.275 78.4217 26.5858 77.2008 26.5858C76.0728 26.5858 75.1685 26.3653 74.4863 25.9234L74.8747 24.5036C75.6112 24.9455 76.4202 25.1668 77.3008 25.1668C77.9341 25.1668 78.4264 25.0214 78.7778 24.733C79.1307 24.4429 79.3079 24.057 79.3079 23.5744C79.3079 23.1422 79.1614 22.7795 78.8715 22.4846C78.5808 22.1914 78.1003 21.9166 77.4261 21.6657C75.5907 20.9714 74.6722 19.9551 74.6722 18.62C74.6722 17.7475 74.9968 17.0332 75.6435 16.4747C76.291 15.917 77.1496 15.6382 78.2177 15.6382C79.1716 15.6382 79.9664 15.8068 80.5974 16.1431L80.1759 17.5318C79.582 17.2058 78.9117 17.0428 78.1618 17.0428C77.5694 17.0428 77.1039 17.1906 76.7723 17.4846C76.4926 17.7475 76.35 18.0679 76.35 18.4482C76.35 18.8677 76.5115 19.216 76.8337 19.4885C77.1125 19.7409 77.6214 20.015 78.3571 20.309C79.2598 20.6781 79.9223 21.108 80.3477 21.6018C80.7754 22.0955 80.9881 22.7115 80.9881 23.4466" fill="white"/>
<path d="M86.5547 20.0397H84.7036V23.7621C84.7036 24.7089 85.0297 25.1811 85.6835 25.1811C85.9836 25.1811 86.2326 25.1555 86.4295 25.102L86.476 26.3956C86.1451 26.521 85.7095 26.5841 85.1707 26.5841C84.5067 26.5841 83.9892 26.378 83.6142 25.9681C83.2408 25.5574 83.0542 24.8695 83.0542 23.9011V20.0365H81.9521V18.7581H83.0542V17.3543L84.7036 16.8494V18.7581H86.5547V20.0397" fill="white"/>
<path fill-rule="evenodd" clip-rule="evenodd" d="M93.8943 25.4343C94.5584 24.6777 94.89 23.7101 94.89 22.5316C94.89 21.3843 94.5694 20.4503 93.9251 19.7256C93.25 18.9802 92.3599 18.6055 91.25 18.6055C90.0992 18.6055 89.1838 18.985 88.5048 19.7416C87.8274 20.4982 87.4863 21.4714 87.4863 22.6595C87.4863 23.7948 87.8156 24.736 88.4741 25.4823C89.1326 26.2285 90.0157 26.6016 91.1263 26.6016C92.2772 26.6016 93.2004 26.2125 93.8943 25.4343ZM92.6994 20.7619C92.9995 21.2661 93.1492 21.8685 93.1492 22.5708C93.1492 23.2747 92.994 23.8811 92.686 24.3973C92.3213 25.0141 91.8179 25.3257 91.1767 25.3257C90.5198 25.3257 90.0133 25.0213 89.6502 24.4116C89.3485 23.9099 89.1996 23.3059 89.1996 22.6028C89.1996 21.8789 89.3485 21.2661 89.6502 20.7619C90.0007 20.1531 90.5182 19.8495 91.1901 19.8495C91.8424 19.8495 92.3473 20.1531 92.6994 20.7619Z" fill="white"/>
<path d="M100.351 20.2596C100.185 20.2284 100.007 20.2132 99.822 20.2132C99.2312 20.2132 98.7743 20.4377 98.453 20.8915C98.1733 21.291 98.0339 21.796 98.0339 22.4056V26.4285H96.3545V21.176C96.3545 20.2931 96.338 19.4869 96.3057 18.7623H97.7684L97.8299 20.2292H97.8764C98.0544 19.725 98.3332 19.3184 98.7161 19.0147C99.091 18.7399 99.4943 18.6033 99.9299 18.6033C100.085 18.6033 100.225 18.6153 100.35 18.6344L100.351 20.2596" fill="white"/>
<path fill-rule="evenodd" clip-rule="evenodd" d="M107.801 23.0049C107.842 22.7947 107.862 22.5375 107.862 22.2323C107.862 21.2759 107.639 20.4705 107.195 19.8209C106.636 19.0012 105.811 18.5913 104.722 18.5913C103.612 18.5913 102.731 19.0012 102.079 19.8209C101.455 20.5888 101.145 21.5515 101.145 22.7068C101.145 23.8829 101.48 24.8233 102.147 25.5224C102.817 26.2208 103.737 26.5707 104.909 26.5707C105.883 26.5707 106.728 26.4125 107.443 26.0969L107.18 24.9144C106.568 25.1573 105.887 25.2772 105.141 25.2772C104.468 25.2772 103.918 25.0982 103.493 24.7418C103.026 24.3424 102.781 23.7623 102.763 23.0049H107.801ZM105.935 20.4809C106.162 20.85 106.273 21.2847 106.261 21.7904L102.763 21.7888C102.814 21.2759 102.981 20.8324 103.26 20.4641C103.601 20.0007 104.047 19.7698 104.597 19.7698C105.197 19.7698 105.644 20.0063 105.935 20.4809Z" fill="white"/>
<path fill-rule="evenodd" clip-rule="evenodd" d="M49.5128 12.1341H50.3915L48.7262 6.90796H47.7036L46.0469 12.1341H46.902L47.3606 10.5992H49.0322L49.5128 12.1341ZM48.4524 8.59061L48.8875 9.95526H47.5053L47.9325 8.59061C48.0367 8.19671 48.1092 7.89173 48.1617 7.67087C48.1671 7.64847 48.1722 7.62694 48.1771 7.60627H48.1929C48.3226 8.1256 48.4068 8.45079 48.4524 8.59061Z" fill="white"/>
<path d="M54.5337 8.36621L53.1287 12.1342H52.3271L50.9678 8.36621H51.8535L52.4876 10.3589C52.5946 10.692 52.6858 11.01 52.7543 11.312H52.7771C52.8384 11.0412 52.9297 10.7232 53.0437 10.3589L53.6699 8.36621H54.5337" fill="white"/>
<path fill-rule="evenodd" clip-rule="evenodd" d="M57.4631 11.7002L57.5244 12.1341L58.2662 12.1349C58.2285 11.9103 58.2127 11.6155 58.2127 11.2352V9.84738C58.2127 8.80791 57.7234 8.28857 56.7543 8.28857C56.25 8.28857 55.8229 8.39724 55.4791 8.61456L55.6467 9.16505C55.9283 8.97889 56.2493 8.88541 56.6158 8.88541C57.1272 8.88541 57.3868 9.13389 57.3868 9.63006V9.69957C56.0125 9.69957 55.2188 10.1806 55.2188 11.1106C55.2188 11.7466 55.6923 12.2195 56.3562 12.2195C56.8219 12.2195 57.1885 12.0494 57.4402 11.7002H57.4631ZM56.0353 11.0171C56.0353 10.4826 56.4931 10.2573 57.4096 10.2573V10.8389C57.4096 11.2807 57.0202 11.6059 56.6001 11.6059C56.2721 11.6059 56.0353 11.4126 56.0353 11.0171Z" fill="white"/>
<path fill-rule="evenodd" clip-rule="evenodd" d="M59.5605 7.24128C59.5605 7.52812 59.9374 7.74544 60.4208 7.74544C60.9597 7.74544 61.3352 7.5441 61.3352 7.24128C61.349 6.95445 60.9459 6.74512 60.4485 6.74512C59.9498 6.74512 59.5605 6.95445 59.5605 7.24128ZM61.1745 12.1342V8.36624H59.7226V12.1342H61.1745Z" fill="white"/>
<path d="M61.9414 6.63721H62.7658V12.1342H61.9414V6.63721Z" fill="white"/>
<path fill-rule="evenodd" clip-rule="evenodd" d="M66.2084 11.7003L66.2705 12.1341H67.0107C66.9746 11.9096 66.9588 11.6148 66.9588 11.2345V9.84665C66.9588 8.80718 66.4687 8.28784 65.4996 8.28784C64.9954 8.28784 64.5682 8.3965 64.2244 8.61382L64.3928 9.16512C64.6744 8.97896 64.9954 8.88548 65.3619 8.88548C65.8733 8.88548 66.1328 9.13396 66.1328 9.63013V9.69964C64.7586 9.69964 63.9648 10.1806 63.9648 11.1106C63.9648 11.7466 64.4384 12.2196 65.1023 12.2196C65.568 12.2196 65.9346 12.0494 66.1863 11.7003H66.2084ZM64.7814 11.0172C64.7814 10.4826 65.2392 10.2573 66.1557 10.2573V10.839C66.1557 11.2808 65.7663 11.606 65.3462 11.606C65.0182 11.606 64.7814 11.4126 64.7814 11.0172Z" fill="white"/>
<path fill-rule="evenodd" clip-rule="evenodd" d="M69.1299 11.5525C69.3824 11.9944 69.771 12.2197 70.2972 12.2197C71.2436 12.2197 71.939 11.3664 71.939 10.1967C71.939 9.0653 71.3128 8.28949 70.4192 8.28949C69.8772 8.28949 69.4807 8.49883 69.2361 8.91749H69.2211V6.63721H68.3951V11.1187C68.3951 11.4902 68.3873 11.8322 68.3652 12.1342H69.0669L69.1141 11.5525H69.1299ZM69.2211 9.94737C69.2211 9.36572 69.6553 8.94705 70.1297 8.94705C70.7173 8.94705 71.0996 9.46719 71.1004 10.227C71.1004 11.0412 70.7323 11.5525 70.1147 11.5525C69.6113 11.5525 69.2211 11.1259 69.2211 10.6065V9.94737Z" fill="white"/>
<path d="M73.1592 6.63721H73.9828V12.1342H73.1592V6.63721Z" fill="white"/>
<path fill-rule="evenodd" clip-rule="evenodd" d="M75.9955 10.4516H78.4703C78.4939 10.3509 78.501 10.2191 78.4986 10.0721C78.4986 8.99425 77.9015 8.28076 76.956 8.28076C75.9035 8.28076 75.2002 9.14925 75.2002 10.3046C75.2002 11.4591 75.8869 12.2037 77.048 12.2037C77.5287 12.2037 77.9409 12.1262 78.2917 11.9712L78.1635 11.3896C77.8661 11.5054 77.5302 11.5678 77.1629 11.5678C76.4761 11.5678 76.012 11.1651 75.9955 10.4516ZM76.897 8.86242C77.4241 8.86242 77.7151 9.27309 77.7151 9.85475H75.9955C76.0506 9.28108 76.4234 8.86242 76.897 8.86242Z" fill="white"/>
<path fill-rule="evenodd" clip-rule="evenodd" d="M81.6807 10.2812C81.6807 11.3974 82.3831 12.2195 83.4671 12.2195C84.5747 12.2195 85.3158 11.3974 85.3158 10.2197C85.3158 9.07157 84.5968 8.28857 83.5293 8.28857C82.3981 8.28857 81.6807 9.11791 81.6807 10.2812ZM82.5216 10.2573C82.5216 9.46627 82.9031 8.90059 83.4986 8.90059C84.0784 8.90059 84.4599 9.47426 84.4599 10.2413C84.4599 10.9939 84.0705 11.5987 83.4907 11.5987C82.911 11.5987 82.5216 11.0331 82.5216 10.2573Z" fill="white"/>
<path d="M89.7473 12.1341H88.9245V9.97049C88.9245 9.30414 88.672 8.97017 88.1756 8.97017C87.6871 8.97017 87.3504 9.39682 87.3504 9.89299V12.1341H86.5276V9.44316C86.5276 9.10999 86.5181 8.75285 86.4961 8.36534H87.2214L87.2599 8.947H87.2835C87.503 8.54431 87.9545 8.28784 88.4588 8.28784C89.236 8.28784 89.7473 8.89267 89.7473 9.87701V12.1341" fill="white"/>
<path d="M95.1418 8.99429H94.2348V10.8239C94.2348 11.2898 94.3945 11.5223 94.7147 11.5223C94.8594 11.5223 94.9829 11.5063 95.0813 11.4831L95.1041 12.1191C94.9436 12.1814 94.7289 12.2126 94.4638 12.2126C93.8132 12.2126 93.4262 11.8482 93.4262 10.8943V8.99429H92.8857V8.36629H93.4262V7.67597L94.2348 7.42749V8.36549H95.1418V8.99429" fill="white"/>
<path d="M99.5073 12.1342H98.6821V9.98652C98.6821 9.31219 98.4296 8.97102 97.934 8.97102C97.5068 8.97102 97.1104 9.26585 97.1104 9.86268V12.1342H96.2852V6.63721H97.1104V8.90071H97.1261C97.3849 8.49004 97.7601 8.2879 98.2408 8.2879C99.0266 8.2879 99.5073 8.9079 99.5073 9.89304V12.1342" fill="white"/>
<path fill-rule="evenodd" clip-rule="evenodd" d="M101.246 10.4516H103.72C103.743 10.3509 103.751 10.2191 103.748 10.0721C103.748 8.99425 103.152 8.28076 102.205 8.28076C101.153 8.28076 100.45 9.14925 100.45 10.3046C100.45 11.4591 101.137 12.2037 102.297 12.2037C102.779 12.2037 103.192 12.1262 103.542 11.9712L103.413 11.3896C103.117 11.5054 102.782 11.5678 102.414 11.5678C101.726 11.5678 101.262 11.1651 101.246 10.4516ZM102.148 8.86242C102.675 8.86242 102.964 9.27309 102.964 9.85475H101.246C101.301 9.28108 101.674 8.86242 102.148 8.86242Z" fill="white"/>
</svg>
