<svg width="129" height="37" viewBox="0 0 129 37" fill="none" xmlns="http://www.w3.org/2000/svg">
<rect x="1" y="0.584473" width="127" height="35" rx="17.5" stroke="white"/>
<path d="M25.5663 17.0881C25.5663 17.0881 18.3026 12.9883 17.876 12.7474C17.4486 12.5065 17.0234 12.6526 17.0234 13.1561V21.9084V30.8388C17.0234 31.2156 17.3272 31.3791 17.6985 31.17C18.069 30.961 25.5663 26.7288 25.5663 26.7288C25.5663 26.7288 26.5848 26.1542 27.0941 25.8669C27.9137 25.4046 29.5528 24.4799 29.5528 24.4799C29.5528 24.4799 32.9352 22.5703 33.3852 22.3171C33.8345 22.0632 33.7912 21.7153 33.4122 21.5149C33.0324 21.3153 29.5528 19.3377 29.5528 19.3377L25.5663 17.0881Z" fill="url(#paint0_linear)"/>
<path d="M26.9079 21.8791L17.3564 12.657C17.1336 12.7097 17 12.8795 17 13.1653V21.8791V30.8108C17 31.0532 17.0959 31.1975 17.2138 31.2464L26.9079 21.8791Z" fill="url(#paint1_linear)"/>
<mask id="mask0" mask-type="alpha" maskUnits="userSpaceOnUse" x="17" y="21" width="13" height="11">
<path fill-rule="evenodd" clip-rule="evenodd" d="M17.6067 31.1947L23.1274 28.1052C24.4869 27.3378 25.5659 26.7287 25.5659 26.7287L29.5806 24.5257L26.9078 21.8799L17.2139 31.2484C17.3219 31.2838 17.5124 31.2644 17.6609 31.1897" fill="white"/>
</mask>
<g mask="url(#mask0)">
<path d="M25.5535 17.0863C25.5396 17.1191 18.2786 13.0117 17.8554 12.802C17.425 12.5291 17 12.6754 17 13.1651V21.9515C17 21.9482 17 30.5167 17 30.8832C17 31.2725 17.3037 31.4363 17.6415 31.2463C18.0452 31.0174 25.5396 26.7774 25.5535 26.7441L29.5452 24.4931C29.5245 24.5244 32.9055 22.6113 33.323 22.3872C33.8045 22.1033 33.7613 21.7548 33.3943 21.5885C33.0027 21.354 29.5245 19.3728 29.5452 19.3374L25.5535 17.0863Z" fill="url(#paint2_linear)"/>
</g>
<path d="M17.863 12.7403C17.6791 12.6399 17.4964 12.6112 17.3486 12.6518L26.908 21.8873L29.5527 19.3377L25.5662 17.0881C25.5662 17.0881 21.8089 14.9674 19.5402 13.6868L17.863 12.7403Z" fill="url(#paint3_linear)"/>
<path fill-rule="evenodd" clip-rule="evenodd" d="M82.277 24.973L83.0442 24.2172C83.1183 24.1398 83.0142 24.1964 83.0142 24.1964C82.4956 24.4639 81.9304 24.7234 81.169 24.7234C79.6446 24.7234 78.2652 23.4853 77.8654 21.3564L79.1003 21.2562L82.8711 19.6657C82.8698 19.6613 82.8685 19.6568 82.8671 19.6523C82.7513 19.2641 82.5397 18.5552 81.7474 18.0083C81.2655 17.6902 80.6727 17.5393 80.0957 17.5393C78.4444 17.5393 76.4199 18.8127 76.4199 21.409C76.4199 22.663 76.9176 24.1021 78.056 24.9393C78.8755 25.5581 79.6788 25.5928 80.1912 25.5928C80.6727 25.5928 81.2146 25.5293 81.7474 25.2767C81.8648 25.2208 81.9823 25.1496 82.1001 25.0782C82.159 25.0426 82.2179 25.0069 82.277 24.973ZM81.2002 19.4939C81.2002 19.7287 81.0428 19.8296 80.7402 19.9465L77.8535 21.2784C77.848 21.1747 77.8406 21.0709 77.8333 20.9679C77.8193 20.7704 77.8055 20.5755 77.8055 20.3887C77.8055 18.5672 78.9949 18.0427 79.6284 18.0427C80.4836 18.0427 81.2002 18.8205 81.2002 19.4939Z" fill="white"/>
<path d="M75.1754 24.1261C75.1754 24.7751 75.2862 24.8761 75.8116 24.9271C76.0855 24.9608 76.3584 24.9756 76.6284 25.0093L76.0372 25.3771H73.2196C73.5892 24.8761 73.6526 24.8261 73.6526 24.4925V24.1197L73.6465 14.1874H72.4023L73.6 13.5845H75.8865C75.3909 13.8845 75.2426 14.0671 75.1791 14.6518L75.1754 24.1261" fill="white"/>
<path fill-rule="evenodd" clip-rule="evenodd" d="M70.8038 18.359C71.1703 18.6743 71.9352 19.3435 71.9352 20.6125C71.9352 21.8494 71.2687 22.4325 70.5966 22.9844L70.5679 23.0145C70.3687 23.2236 70.1491 23.454 70.1491 23.8016C70.1491 24.1644 70.3814 24.3642 70.5541 24.5128L70.5639 24.5212L71.1405 24.987C71.8415 25.6062 72.4805 26.1739 72.4805 27.3272C72.4805 28.8982 71.0275 30.4825 68.2817 30.4825C65.9688 30.4825 64.8506 29.3298 64.8506 28.0938C64.8506 27.4925 65.1368 26.6406 66.0809 26.0571C67.0573 25.4324 68.3754 25.3417 69.1 25.2919L69.1289 25.2899L69.0955 25.2449C68.88 24.9552 68.6488 24.6442 68.6488 24.152C68.6488 23.8987 68.7139 23.7369 68.7838 23.5631L68.7839 23.5631C68.7921 23.5426 68.8004 23.522 68.8086 23.5011L68.7975 23.5022L68.7974 23.5022C68.6266 23.5192 68.4547 23.5363 68.2983 23.5363C66.6054 23.5363 65.6485 22.2147 65.6485 20.9125C65.6485 20.1443 65.9834 19.292 66.6712 18.6743C67.5812 17.8903 68.6663 17.7551 69.5286 17.7551H72.8178L71.7952 18.359H70.8038ZM69.6808 25.7549C69.5487 25.7367 69.4696 25.7367 69.3103 25.7367C69.1644 25.7367 68.2951 25.77 67.6219 26.0088C67.2657 26.1464 66.2362 26.553 66.2362 27.7608C66.2362 28.9662 67.3477 29.8354 69.0671 29.8354C70.612 29.8354 71.4322 29.0528 71.4322 27.9992C71.4322 27.132 70.9015 26.6745 69.6808 25.7549ZM70.5315 21.3212C70.5315 21.6227 70.4995 22.1536 70.1322 22.538C69.8807 22.8015 69.4521 23.0043 69.0536 23.0043C67.6883 23.0043 67.0675 21.1549 67.0675 20.0398C67.0675 19.607 67.1481 19.157 67.417 18.8101C67.6704 18.4751 68.1169 18.2585 68.529 18.2585C69.8501 18.2585 70.5315 20.1236 70.5315 21.3212Z" fill="white"/>
<path fill-rule="evenodd" clip-rule="evenodd" d="M56.9531 21.6261C56.9531 23.511 58.3135 25.5928 60.8561 25.5928C63.4646 25.5928 64.9203 23.4926 64.9203 21.5075C64.9203 19.4751 63.4476 17.5393 61.096 17.5393C58.6634 17.5393 56.9531 19.4237 56.9531 21.6261ZM63.3269 22.361C63.3269 23.0178 63.2327 23.6915 62.8446 24.2313C62.475 24.7701 61.8343 25.0895 61.2065 25.0895C59.2611 25.0895 58.4773 22.341 58.4773 20.6746C58.4773 19.9469 58.5891 19.2052 59.216 18.6149C59.6003 18.2601 60.1335 18.0427 60.6628 18.0427C62.6534 18.0427 63.3269 20.8756 63.3269 22.361Z" fill="white"/>
<path fill-rule="evenodd" clip-rule="evenodd" d="M48.4316 21.6261C48.4316 23.511 49.7903 25.5928 52.3344 25.5928C54.9444 25.5928 56.3988 23.4926 56.3988 21.5075C56.3988 19.4751 54.9269 17.5393 52.5758 17.5393C50.1431 17.5393 48.4316 19.4237 48.4316 21.6261ZM54.8054 22.361C54.8054 23.0178 54.7093 23.6915 54.3238 24.2313C53.9531 24.7701 53.3131 25.0895 52.6864 25.0895C50.7434 25.0895 49.9558 22.341 49.9558 20.6746C49.9558 19.9469 50.0672 19.2052 50.6953 18.6149C51.0808 18.2601 51.6085 18.0427 52.1401 18.0427C54.1297 18.0427 54.8054 20.8756 54.8054 22.361Z" fill="white"/>
<path d="M47.3764 25.0952L45.2228 25.6103C44.3502 25.7541 43.5666 25.8804 42.7369 25.8804C38.5829 25.8804 37 22.6864 37 20.1866C37 17.1339 39.2427 14.3035 43.0834 14.3035C43.896 14.3035 44.6777 14.4283 45.3899 14.6312C46.5186 14.9623 47.0465 15.3706 47.3764 15.6098L46.1254 16.851L45.5979 16.9743L45.974 16.3482C45.4646 15.8286 44.5282 14.8694 42.7511 14.8694C40.3752 14.8694 38.5829 16.756 38.5829 19.5104C38.5829 22.4686 40.6294 25.2513 43.9117 25.2513C44.8762 25.2513 45.3727 25.0489 45.8235 24.86V22.3239L43.5495 22.4517L44.7548 21.7754H47.9462L47.5559 22.1678C47.4507 22.2612 47.4364 22.2931 47.4069 22.4184C47.3912 22.5616 47.3764 23.0171 47.3764 23.1772V25.0952" fill="white"/>
<path fill-rule="evenodd" clip-rule="evenodd" d="M87.6926 28.541V24.2942C88.3005 25.184 89.2485 25.7518 90.3067 25.7518C92.3172 25.7518 93.6713 24.1321 93.6713 21.6374C93.6713 19.1259 92.3172 17.5393 90.3067 17.5393C89.1858 17.5393 88.2207 18.1698 87.6926 18.9653V17.7345H86.8818V28.541H87.6926ZM90.1998 18.3303C91.8879 18.3303 92.8399 19.7893 92.8399 21.7021C92.8399 23.618 91.8879 25.0895 90.1998 25.0895C89.1515 25.0895 88.1489 24.1952 87.7132 23.4412V19.9455C88.1489 19.1931 89.1515 18.3303 90.1998 18.3303Z" fill="white"/>
<path d="M94.7793 14.7349H95.6107V25.5927H94.7793V14.7349Z" fill="white"/>
<path d="M104.65 27.7932C104.823 27.8738 105.119 27.9232 105.307 27.9232C105.802 27.9232 106.148 27.7121 106.458 26.9669L107.049 25.5727L103.855 17.6831H104.76L107.5 24.52L110.213 17.6831H111.13L107.235 27.2283C106.83 28.2118 106.194 28.6848 105.321 28.6848C105.059 28.6848 104.713 28.6363 104.51 28.5716L104.65 27.7932" fill="white"/>
<path fill-rule="evenodd" clip-rule="evenodd" d="M102.236 24.8681C102.266 25.0688 102.307 25.3093 102.362 25.5821H103.301C103.228 25.3282 103.173 25.0658 103.139 24.803C103.106 24.5407 103.093 24.2714 103.093 23.9926V20.1121C103.093 19.2813 102.821 18.6458 102.279 18.2061C101.737 17.7619 101.018 17.5393 100.129 17.5393C99.2368 17.5393 98.5122 17.7654 97.959 18.215C97.4034 18.6652 97.1421 19.1864 97.1722 19.7807L97.1894 19.8229H98.024C98.024 19.3822 98.2136 19.0165 98.59 18.7214C98.9698 18.4322 99.4685 18.2836 100.083 18.2836C100.756 18.2836 101.275 18.4461 101.644 18.7676C102.013 19.0885 102.197 19.5312 102.197 20.0942V21.0715H100.295C99.276 21.0715 98.4524 21.2902 97.8152 21.7299C97.178 22.1676 96.8584 22.74 96.8584 23.4451C96.8584 24.1511 97.0791 24.7091 97.5176 25.121C97.9576 25.5334 98.5743 25.7366 99.3686 25.7366C100.028 25.7366 100.509 25.5985 101.016 25.3168C101.522 25.037 101.918 24.6818 102.197 24.255C102.197 24.4631 102.211 24.6679 102.236 24.8681ZM101.164 24.5356C100.656 24.8557 100.159 25.0176 99.4667 25.0176C98.936 25.0176 98.5198 24.8807 98.2153 24.6045C97.9118 24.3313 97.759 23.9708 97.759 23.5198C97.759 23.0418 98.0001 22.6308 98.4759 22.2912C98.9508 21.9506 99.5546 21.7818 100.284 21.7818H102.193V23.3C102.013 23.8024 101.669 24.2175 101.164 24.5356Z" fill="white"/>
<path d="M37.0029 8.17818C37.0029 6.63961 38.1929 5.6499 39.6727 5.6499C40.6644 5.6499 41.313 6.10447 41.7172 6.66112L40.9928 7.06442C40.7183 6.69775 40.2374 6.41255 39.6727 6.41255C38.6662 6.41255 37.9184 7.14499 37.9184 8.17818C37.9184 9.19627 38.6662 9.94382 39.6727 9.94382C40.1917 9.94382 40.6492 9.71676 40.8779 9.50435V8.74949H39.3524V7.99462H41.7629V9.8193C41.2673 10.3544 40.5501 10.7133 39.6727 10.7133C38.1929 10.7133 37.0029 9.70989 37.0029 8.17818" fill="white"/>
<path d="M42.917 10.6389V5.72437H46.4509V6.48384H43.8219V7.75056H46.3968V8.50957H43.8219V9.87985H46.4509V10.6389H42.917" fill="white"/>
<path d="M48.8543 10.6389V6.48384H47.3164V5.72437H51.2831V6.48384H49.7452V10.6389H48.8543" fill="white"/>
<path d="M54.4561 5.72437H55.3215V10.6389H54.4561V5.72437Z" fill="white"/>
<path d="M57.7981 10.6389V6.48384H56.2598V5.72437H60.2264V6.48384H58.689V10.6389H57.7981" fill="white"/>
<path fill-rule="evenodd" clip-rule="evenodd" d="M65.8153 5.6499C64.2711 5.6499 63.1826 6.72127 63.1826 8.18185C63.1826 9.64197 64.2711 10.7133 65.8153 10.7133C67.3508 10.7133 68.4475 9.64197 68.4475 8.18185C68.4475 6.72127 67.3508 5.6499 65.8153 5.6499ZM65.8153 6.39452C66.843 6.39452 67.5099 7.1422 67.5099 8.14439C67.5099 9.13886 66.843 9.89425 65.8153 9.89425C64.7799 9.89425 64.1202 9.13886 64.1202 8.14439C64.1202 7.1422 64.7799 6.39452 65.8153 6.39452Z" fill="white"/>
<path d="M72.9962 10.6389L70.3472 7.12456V10.6389H69.457V5.72437H70.3705L72.9658 9.12866V5.72437H73.8564V10.6389H72.9962" fill="white"/>
<defs>
<linearGradient id="paint0_linear" x1="22.8765" y1="17.9878" x2="30.1955" y2="26.7623" gradientUnits="userSpaceOnUse">
<stop stop-color="#FF177B"/>
<stop offset="1" stop-color="#FFEC73"/>
</linearGradient>
<linearGradient id="paint1_linear" x1="10.4317" y1="-7.22651" x2="-10.651" y2="5.72838" gradientUnits="userSpaceOnUse">
<stop stop-color="#064AA2"/>
<stop offset="1" stop-color="#63FFD4"/>
</linearGradient>
<linearGradient id="paint2_linear" x1="26.9318" y1="13.4257" x2="10.8743" y2="21.2375" gradientUnits="userSpaceOnUse">
<stop stop-color="#FF4521"/>
<stop offset="1" stop-color="#8A33DB"/>
</linearGradient>
<linearGradient id="paint3_linear" x1="3.66858" y1="7.83959" x2="8.32467" y2="29.2755" gradientUnits="userSpaceOnUse">
<stop stop-color="#00A3B5"/>
<stop offset="1" stop-color="#D6FFA1"/>
</linearGradient>
</defs>
</svg>
